<?xml version="1.0" encoding="utf-8"?>
<!-- Generator: Adobe Illustrator 23.0.3, SVG Export Plug-In . SVG Version: 6.00 Build 0)  -->
<svg version="1.1" id="Layer_2" xmlns="http://www.w3.org/2000/svg" xmlns:xlink="http://www.w3.org/1999/xlink" x="0px" y="0px"
	 width="100px" height="100px" viewBox="0 0 100 100" style="enable-background:new 0 0 100 100;" xml:space="preserve">
<style type="text/css">
	.st0{fill-rule:evenodd;clip-rule:evenodd;fill:#FFFFFF;filter:url(#Adobe_OpacityMaskFilter);}
	.st1{mask:url(#mask-2_6_);fill-rule:evenodd;clip-rule:evenodd;}
	.st2{fill-rule:evenodd;clip-rule:evenodd;fill:#FFFFFF;filter:url(#Adobe_OpacityMaskFilter_1_);}
	.st3{mask:url(#mask-2_5_);fill-rule:evenodd;clip-rule:evenodd;}
	.st4{fill-rule:evenodd;clip-rule:evenodd;fill:#FFFFFF;filter:url(#Adobe_OpacityMaskFilter_2_);}
	.st5{mask:url(#mask-2_4_);fill-rule:evenodd;clip-rule:evenodd;}
</style>
<g transform="matrix(0.30977, 0, 0, 0.30977, 45.072567, -1.919299)">
	<g id="Icon-Standard-Delivery">
		<g id="Clip-2">
		</g>
		<defs>
			<filter id="Adobe_OpacityMaskFilter" filterUnits="userSpaceOnUse" x="-125.6" y="24.8" width="282.9" height="281.4">
				<feColorMatrix  type="matrix" values="1 0 0 0 0  0 1 0 0 0  0 0 1 0 0  0 0 0 1 0"/>
			</filter>
		</defs>
		<mask maskUnits="userSpaceOnUse" x="-125.6" y="24.8" width="282.9" height="281.4" id="mask-2_6_">
			<polygon class="st0" points="-125.6,306.2 -125.6,24.8 15.8,24.8 157.3,24.8 157.3,306.2 15.8,306.2 			"/>
		</mask>
		<path id="Fill-1" class="st1" d="M147.2,296c-1.7,1.7-3.9,2.6-6.2,2.6l-205.5,0.1c-4.9,0-8.9-4-8.9-8.9v-2.4v-0.2l-0.1-204.4
			c0.1-2.2,1-4.2,2.6-5.8c1.7-1.7,3.9-2.6,6.2-2.6l205.5-0.1c4.9,0,8.9,4,8.9,8.9l0.1,206.5C149.9,292.1,148.9,294.3,147.2,296
			L147.2,296z M-74.7,70.5c-0.1-0.2-0.1-0.4-0.2-0.5c0.2,0.1,0.4,0.1,0.6,0.2C-74.4,70.3-74.6,70.4-74.7,70.5L-74.7,70.5z M-78.4,59
			l-22-19.7l-5.7-5.1c-0.6-0.6-0.9-1.1-1.2-1.4c0.5-0.2,1.4-0.3,2.7-0.3l195.7-0.1c6.5,0,16,3.6,20.8,7.9l27.1,24.2
			c1,0.9,1.5,1.6,1.8,2c-0.5,0.2-1.4,0.3-2.7,0.3l-195.7,0.1V67v-0.1C-64.1,66.9-73.6,63.3-78.4,59L-78.4,59z M-81.5,290.6
			c-0.4,0-1.4-0.4-3-1.8l-24.5-22.3c-4.7-4.3-8.7-13.3-8.7-19.6l-0.5-208.6c0-2.2,0.5-3.2,0.7-3.4c0.4,0,1.5,0.4,3,1.7l3.2,2.9
			c0.3,0.2,0.5,0.5,0.8,0.7l20.9,18.8c4.7,4.2,8.7,13.2,8.7,19.5l0,4.2c0,0.1,0,0.3,0,0.5l0.1,204.2
			C-80.9,289.5-81.3,290.4-81.5,290.6L-81.5,290.6z M157.2,83.2c0-6.4-3.6-11.9-8.9-14.6c0.5-2,0.4-5.6-4.3-9.8l-27.1-24.2
			c-6.2-5.5-17.5-9.8-25.8-9.8l-195.7,0.1c-5.2,0-7.8,1.8-9.1,3.4c-3.4-1.5-6.8-1-9.1,1.3c-1.9,1.9-2.9,4.9-2.9,8.7l0.5,208.6
			c0,8.4,4.9,19.4,11.2,25.1l24.5,22.3c2.7,2.5,5.4,3.7,8,3.7c0.9,0,1.8-0.2,2.6-0.5c2.8,5.1,8.1,8.6,14.3,8.6l205.5-0.1
			c4.3,0,8.4-1.7,11.5-4.8c3.1-3.1,4.8-7.2,4.8-11.5L157.2,83.2z"/>
		<defs>
			<filter id="Adobe_OpacityMaskFilter_1_" filterUnits="userSpaceOnUse" x="-1.1" y="144.1" width="116.4" height="106.6">
				<feColorMatrix  type="matrix" values="1 0 0 0 0  0 1 0 0 0  0 0 1 0 0  0 0 0 1 0"/>
			</filter>
		</defs>
		<mask maskUnits="userSpaceOnUse" x="-1.1" y="144.1" width="116.4" height="106.6" id="mask-2_5_">
			<polygon class="st2" points="-125.6,306.2 -125.6,24.8 15.8,24.8 157.3,24.8 157.3,306.2 15.8,306.2 			"/>
		</mask>
		<path id="Fill-4" class="st3" d="M87,243.3c-7.5-2.8-18.3-11.2-24.5-18.9c-8-9.2-27.3-35.3-27.3-35.3c-9.9-12.9-23.2-34.3-36.3-45
			l0.1,85.5l11.7,0l0-43.2c8.2,10.6,17.9,24.1,25.1,32.6c3.2,3.8,11.4,12.8,13.7,14.8c15.1,14.8,42.8,21.4,65.8,13.3v-0.8
			C107.4,248,97.1,247.4,87,243.3"/>
		<defs>
			<filter id="Adobe_OpacityMaskFilter_2_" filterUnits="userSpaceOnUse" x="-37.1" y="125.1" width="116.4" height="106.5">
				<feColorMatrix  type="matrix" values="1 0 0 0 0  0 1 0 0 0  0 0 1 0 0  0 0 0 1 0"/>
			</filter>
		</defs>
		<mask maskUnits="userSpaceOnUse" x="-37.1" y="125.1" width="116.4" height="106.5" id="mask-2_4_">
			<polygon class="st4" points="-125.6,306.2 -125.6,24.8 15.8,24.8 157.3,24.8 157.3,306.2 15.8,306.2 			"/>
		</mask>
		<path id="Fill-6" class="st5" d="M15.7,151.3c8,9.3,27.3,35.3,27.3,35.3c9.9,12.9,23.2,34.2,36.3,45l0-85.5l-11.7,0l0,43.2
			c-8.3-10.6-17.9-24.1-25.1-32.7c-3.2-3.8-11.4-12.8-13.7-14.8c-15.1-14.8-42.7-21.4-65.8-13.3v0.8c7.9-1.7,18.2-1.1,28.2,2.9
			C-1.3,135.2,9.5,143.7,15.7,151.3"/>
	</g>
</g>
</svg>
