<svg width="80" height="80" viewBox="0 0 80 80" xmlns="http://www.w3.org/2000/svg"><title>icn-coffee</title><g id="Become-member" fill="none" fill-rule="evenodd"><g id="icn-coffee"><path id="Rectangle-11" d="M0 0h80v80H0z"/><g id="Page-1" fill="#FFF"><path d="M61.057 52.827c-1.46 3.683-5 6.727-10.523 9.04-2.207.925-5.84 1.52-9.264 1.52-3.177 0-6.043-.492-8.283-1.427-2.657-1.11-4.418-2.806-5.233-5.052-.78-2.132-.42-4.594 1.032-7.12 2.628-4.577 8.342-8.46 13.886-9.434 1.78-.314 3.512-.473 5.154-.473 5.908 0 10.412 1.982 13.39 5.887.168.423 1.27 3.452-.16 7.06m1.08-7.528l-.026-.057-.036-.047c-1.68-2.226-3.857-3.892-6.47-4.953-2.282-.926-4.9-1.394-7.778-1.394-1.7 0-3.493.163-5.335.485-5.82 1.026-11.824 5.113-14.6 9.936-1.607 2.802-1.992 5.564-1.106 7.992.92 2.53 2.874 4.43 5.81 5.652 2.364.985 5.366 1.506 8.676 1.506 3.55 0 7.34-.63 9.662-1.6 5.788-2.425 9.515-5.66 11.08-9.61 1.694-4.273.187-7.766.123-7.91" id="Fill-1"/><path d="M56.86 45.48c-.843.572-2.424 1.304-5.163 1.556-.63.06-1.262.088-1.93.088-1.286 0-2.492-.107-3.657-.21-1.15-.105-2.238-.2-3.39-.2-1.974 0-3.735.31-5.54.974-2.898 1.065-4.787 3.66-5.86 5.645-1.157 2.147-1.643 4.07-1.647 4.09l-.202.803.45-.697c4.842-7.533 8.64-7.934 17.515-8.183 2.552-.072 6.148-.57 8.778-2.548 1.587-1.194 2.065-2.345 2.084-2.392l-.254-.11c0 .004-.27.566-1.182 1.182" id="Fill-3"/><path d="M25.476 46.728c-3.146-2.262-5.715-6.17-6.776-10.348-1.095-4.303-.846-8.814.7-12.7 1.362-3.44 3.642-6.064 6.095-7.016.57-.22 1.198-.332 1.867-.332 2.468 0 5.365 1.544 7.753 4.134 2.747 2.977 4.685 7.142 5.46 11.726.263 1.554.366 3.02.305 4.36-.238.064-.38.106-.41.113-2.06.576-3.934 1.24-5.62 1.99l.092-1.173c.173-2.128.387-4.774.21-8.033-.21-3.857-2.732-6.718-4.806-8.443-2.243-1.858-4.47-2.83-4.493-2.836-.068-.028-.15.003-.18.073-.03.067 0 .15.072.178 2.074.953 3.898 2.844 5.13 5.32 1.383 2.792 1.938 6.168 1.606 9.76-.244 2.66-.353 4.847-.32 6.524-.852.493-1.64 1.015-2.357 1.566-1.963 1.512-3.414 3.238-4.327 5.138m4.956-4.318c2.537-1.95 6.007-3.55 10.32-4.75l.008-.003c.004-.002.273-.082.73-.19l.37-.09.024-.377c.11-1.528.008-3.2-.293-4.98-1.037-6.127-3.683-10.047-5.72-12.257-2.62-2.837-5.718-4.464-8.508-4.464-.798 0-1.55.135-2.24.403-2.71 1.053-5.21 3.892-6.68 7.596-1.622 4.086-1.887 8.82-.74 13.337 1.18 4.635 4.135 8.967 7.71 11.3l.52.337.236-.57c.813-1.962 2.247-3.744 4.264-5.294" id="Fill-5"/></g></g></g></svg>
