<?xml version="1.0" encoding="UTF-8"?>
<svg width="80px" height="80px" viewBox="0 0 80 80" version="1.1" xmlns="http://www.w3.org/2000/svg" xmlns:xlink="http://www.w3.org/1999/xlink">
    <!-- Generator: Sketch 44.1 (41455) - http://www.bohemiancoding.com/sketch -->
    <title>Machine</title>
    <desc>Created with Sketch.</desc>
    <defs></defs>
    <g id="Become-member" stroke="none" stroke-width="1" fill="none" fill-rule="evenodd">
        <g id="Machine" fill="#FFFFFF">
            <polygon id="Fill-1" points="27.6500708 36.6836034 27.6500708 37.3503966 52.544932 37.3377759 52.544932 36.6730862"></polygon>
            <polygon id="Fill-2" points="27.6500708 30.9039586 27.6500708 31.5686483 52.5470342 31.5560276 52.5470342 30.8913379"></polygon>
            <polygon id="Fill-3" points="27.6500708 42.4708207 27.6500708 43.1313034 52.5470342 43.1228897 52.5470342 42.4560966"></polygon>
            <polygon id="Fill-4" points="27.6500708 48.2504655 27.6500708 48.9151552 52.544932 48.9025345 52.544932 48.2399483"></polygon>
            <path d="M56.9434726,56.7038034 L55.4130336,56.7059069 L55.2196265,56.7059069 L26.0151499,56.7164241 L26.0004341,25.6253552 L26.0613994,25.6253552 L26.0613994,21.6729759 L54.9673563,21.6582517 L54.9673563,21.6729759 L57.0359717,21.6729759 L57.0359717,24.8239414 L57.4690355,24.8239414 L59.2160064,24.8239414 C59.6553769,24.8281483 59.9602034,24.9795966 60.2461096,25.2845966 C60.4605392,25.5138724 60.6455373,25.8357 60.8011039,26.2227345 L49.5918994,26.2290448 C48.50924,25.8924931 47.1091405,25.4781138 46.7244285,25.4781138 C46.0706283,25.4781138 45.540861,26.0102862 45.540861,26.6623552 C45.5429632,27.3165276 46.0706283,27.8465966 46.7244285,27.8465966 C47.1091405,27.8444931 48.5071377,27.4343207 49.5918994,27.0956655 L61.0617831,27.0893552 C61.1017259,27.2471138 61.1416687,27.4069759 61.1711002,27.5773552 C61.3582006,28.5575621 61.4149614,29.6660793 61.4149614,30.6483897 C61.4149614,31.4182517 61.3771208,32.1123897 61.3434848,32.6109069 C61.3350758,32.7728724 61.3224623,32.9074931 61.3098488,33.0231828 L59.9139538,33.0231828 L59.2454379,31.0207 L57.0359717,31.0228034 L57.0443807,35.9848379 L54.973663,35.9869414 L54.9799698,48.7885276 L55.4130336,48.7885276 L64.5115777,48.7822172 L56.9434726,56.7038034 Z M15.4912794,56.7227345 L15.4765636,26.8516655 L14.5242437,26.853769 L14.5242437,25.6295621 L25.2436236,25.6253552 L25.2562371,56.7185276 L15.4912794,56.7227345 Z M55.8397906,47.9219069 L55.8397906,36.8514586 L57.9105083,36.8514586 L57.9020992,31.8873207 L58.6231715,31.8852172 L59.2937897,33.8898034 L62.0939886,33.8898034 L62.1360336,33.5069759 C62.1360336,33.4964586 62.2810889,32.2407 62.2810889,30.6483897 C62.2747822,29.5230448 62.1991011,28.2441483 61.9447287,27.0872517 L64.3497043,27.0872517 C64.5914632,27.0872517 64.7827681,26.891631 64.7827681,26.6539414 C64.7827681,26.4162517 64.5914632,26.220631 64.3497043,26.220631 L61.7176856,26.2227345 C61.5200739,25.6358724 61.2572925,25.1079069 60.8809895,24.6977345 C60.4710505,24.2454931 59.8929313,23.9510103 59.2160064,23.9573207 L57.9020992,23.9573207 L57.9020992,20.8063552 L55.8334839,20.8084586 L55.8334839,20.7937345 L25.1931696,20.8084586 L25.1952719,24.756631 L13.6581161,24.7629414 L13.6602184,27.7203897 L14.6125383,27.7182862 L14.6251518,57.5893552 L25.6430514,57.5851483 L25.8091293,57.5830448 L55.2196265,57.5704241 L55.4130336,57.5704241 L57.3113666,57.5683207 L66.5360458,47.9155966 L55.8397906,47.9219069 Z" id="Fill-5"></path>
        </g>
    </g>
</svg>