<svg width="80" height="80" viewBox="0 0 80 80" xmlns="http://www.w3.org/2000/svg" xmlns:xlink="http://www.w3.org/1999/xlink"><title>icn-hand</title><defs><path id="path-1" d="M21.862.155H.205v17.133h21.657V.155z"/></defs><g id="Become-member" fill="none" fill-rule="evenodd"><g id="icn-hand"><path id="Rectangle-11-Copy-4" d="M0 0h80v80H0z"/><g id="Page-1"><g id="Group-3" transform="translate(35.478 21.218)"><mask id="mask-2" fill="#fff"><use xlink:href="#path-1"/></mask><path d="M.936.937C.928.897.932.88.932.88S.947.87.99.87h16.608c.025 0 .044.005.05.01 0 .006.005.023-.002.05l-1.06 5.287H1.97L.936.937zm19.127 3.148c.086 0 .38.02.64.262.285.263.434.73.434 1.347 0 2.127-1.33 5.244-2.365 6.106-.744.555-1.547.62-1.7.628h-.99l1.673-8.343h2.308zM4.333 17.288h9.835c.52 0 1.02-.406 1.12-.906l.65-3.24h1.116c.045 0 1.13-.008 2.176-.79.648-.54 1.32-1.64 1.843-3.013.49-1.3.79-2.66.79-3.646 0-.833-.225-1.458-.662-1.865-.467-.436-1.015-.457-1.122-.457h-.027l-2.154.002.464-2.306c.047-.245-.004-.474-.147-.648-.145-.173-.364-.268-.615-.268H.99C.74.154.52.25.372.424.23.596.175.827.222 1.07L3.216 16.38c.097.5.597.906 1.117.906z" id="Fill-1" fill="#FFF" mask="url(#mask-2)"/></g><path d="M65.518 34.005c-.17-.253-.434-.402-.76-.426-1.175-.093-2.34.617-3.468 2.1-.173.227-.375.5-.59.792-.974 1.333-2.45 3.347-3.757 4.316-1.63 1.21-4.177 3.4-4.2 3.42-.17.145-.186.394-.043.56.147.166.402.183.568.04.026-.023 2.55-2.193 4.158-3.387 1.4-1.04 2.86-3.03 3.926-4.483.21-.288.41-.56.578-.78.654-.863 1.664-1.87 2.764-1.788.102.006.132.04.155.075.17.255.05.98-.088 1.408-.254.527-4.676 9.73-5.15 10.666-.445.877-1.112 1.776-1.186 1.873-.08.09-.93 1.032-4.77 4.07-4.25 3.36-8.422 5.518-9.852 5.588-.96.05-2.26-.615-4.064-1.535-1.032-.527-2.206-1.125-3.62-1.753-4.304-1.91-7.28-3.033-9.74-3.113-2.51-.086-6.15 1.262-6.302 1.32-.21.078-.31.305-.234.512.08.203.31.308.518.23.034-.014 3.64-1.35 5.992-1.273 1.718.057 3.896.586 9.44 3.045 1.39.618 2.556 1.212 3.582 1.736 1.903.97 3.186 1.625 4.324 1.625.05 0 .096-.002.145-.004 1.813-.088 6.342-2.618 10.312-5.756 4.083-3.232 4.864-4.154 4.895-4.192l.01-.013c.03-.042.766-1.014 1.267-2.007.49-.965 4.977-10.306 5.165-10.703l.02-.045c.08-.236.453-1.447.003-2.12" id="Fill-4" fill="#FFF"/><g id="Group-8" fill="#FFF"><path d="M26.39 36.635c4.332.635 5.48 1.47 8.155 3.796 2.68 2.33 8.156 6.616 8.21 6.657l.147.113.175-.033c2.418-.447 9.083-1.284 10.902.208.29.24.426.513.426.86 0 .783-.277 1.435-.85 1.987-1.893 1.823-6.226 1.862-7.507 1.83-1.154-.027-1.86-.266-2.758-.57-1.582-.536-3.75-1.27-9.706-1.374h-.006c-.22 0-.398.173-.4.39-.003.22.168.4.39.404 5.832.1 7.93.81 9.462 1.33.922.312 1.724.583 2.994.614.162.004.343.006.54.006 1.973 0 5.68-.26 7.55-2.062.727-.7 1.093-1.56 1.093-2.554 0-.585-.242-1.082-.717-1.472-1.063-.87-3.344-1.194-6.786-.963-2.097.143-4.01.454-4.596.555-.877-.688-5.61-4.413-8.038-6.52-2.687-2.336-3.96-3.31-8.565-3.984-4.488-.657-11.954 2.566-12.267 2.703-.203.09-.294.323-.207.524.088.2.326.29.53.2.075-.03 7.564-3.266 11.827-2.642" id="Fill-6"/></g></g></g></g></svg>
