<svg width="80" height="80" viewBox="0 0 80 80" xmlns="http://www.w3.org/2000/svg"><title>Leaf</title><g id="Become-member" fill="none" fill-rule="evenodd"><g id="Leaf" fill="#FFF"><path d="M51.658 31.69c-2.35 12.89-8.77 19.154-19.626 19.154-2.275 0-4.768-.287-7.412-.855l-.005-.005c.955-2.642 3.934-8.984 12.18-15.832 0 0-10.613 3.963-14.633 12.863-1.384-3.386-2.04-12.55 4.93-18.257 5.6-4.58 9.716-6.493 20.738-6.493 2.548 0 5.54.092 9.44.298-2.182 1.857-4.842 4.902-5.612 9.126m8.966-10.203C55.514 21.18 51.34 21 47.83 21c-10.902 0-15.392 1.735-21.57 6.79-7.677 6.277-6.706 16.356-5.274 19.772.17.405.355.76.546 1.086-.048.144-.11.278-.157.427l.374 4.983c.123 3.24.58 4.942.58 4.942h1.532c-.578-3.842.365-7.794.367-7.8 2.885.63 5.472.91 7.802.91 16.502 0 19.81-14.2 20.902-20.197 1.247-6.842 8.06-10.403 8.06-10.403-.124-.01-.248-.016-.37-.023" id="Fill-1"/></g></g></svg>
