<svg width="80" height="80" viewBox="0 0 80 80" xmlns="http://www.w3.org/2000/svg" xmlns:xlink="http://www.w3.org/1999/xlink"><title>icn-cup</title><defs><path id="path-1" d="M47.823.337H.45V37.72h47.373V.336z"/></defs><g id="Become-member" fill="none" fill-rule="evenodd"><g id="icn-cup"><path id="Rectangle-11-Copy-3" d="M0 0h80v80H0z"/><g id="Group-3" transform="translate(16 21)"><mask id="mask-2" fill="#fff"><use xlink:href="#path-1"/></mask><path d="M2.047 2.043c-.016-.085-.008-.12-.008-.12s.032-.026.127-.026h36.33c.053 0 .094.012.11.02 0 .017.01.053-.007.11l-2.317 11.538H4.306L2.046 2.043zm41.84 6.87c.19 0 .833.044 1.402.572.62.573.946 1.59.946 2.938 0 4.642-2.91 11.44-5.172 13.323-1.628 1.21-3.383 1.353-3.72 1.37h-2.165L38.84 8.91h5.047zM9.477 37.718h21.515c1.137 0 2.23-.887 2.448-1.976l1.426-7.068h2.44c.098 0 2.472-.02 4.76-1.727 1.417-1.18 2.885-3.578 4.03-6.573 1.076-2.833 1.727-5.804 1.727-7.954 0-1.816-.49-3.182-1.446-4.068-1.022-.95-2.222-.996-2.457-.996h-.057l-4.715.003 1.014-5.03c.103-.533-.01-1.033-.322-1.41-.317-.38-.795-.586-1.343-.586H2.167c-.55 0-1.03.207-1.352.59-.313.373-.433.877-.33 1.405l6.55 33.412c.213 1.09 1.305 1.975 2.443 1.975z" id="Fill-1" fill="#FFF" mask="url(#mask-2)"/></g></g></g></svg>
