<?xml version="1.0" standalone="no"?><!DOCTYPE svg PUBLIC "-//W3C//DTD SVG 1.1//EN" "http://www.w3.org/Graphics/SVG/1.1/DTD/svg11.dtd"><svg t="1575539432115" class="icon" viewBox="0 0 1024 1024" version="1.1" xmlns="http://www.w3.org/2000/svg" p-id="2333" xmlns:xlink="http://www.w3.org/1999/xlink" width="64" height="64"><defs><style type="text/css"></style></defs><path d="M368.484322 929.701686a18.973504 18.973504 0 0 1-25.045025 11.953308 415.140263 415.140263 0 0 1-204.534371-184.042987 18.973504 18.973504 0 0 1 7.209932-25.045025 18.973504 18.973504 0 0 1 26.562905 7.589401 379.470076 379.470076 0 0 0 184.801927 166.397628 18.973504 18.973504 0 0 1 11.004632 23.147675z" p-id="2334" fill="#e6e6e6"></path><path d="M955.52453 529.740226a125.79433 125.79433 0 0 0-89.554938-32.824162h-3.604966V436.390587H33.98145v173.98703A414.001853 414.001853 0 0 0 761.425586 880.370576a189.735038 189.735038 0 0 0 65.268853-23.527144c79.119511-43.639059 160.515842-136.040022 162.792663-227.682046a128.830091 128.830091 0 0 0-33.962572-99.42116z m-212.503243 313.252548A347.025384 347.025384 0 0 1 717.027587 873.72985 376.054845 376.054845 0 0 1 71.928458 609.808412V474.337595h752.489161v136.040022a373.019085 373.019085 0 0 1-81.396332 232.615157z m65.268853-18.973504l-8.538076 4.553641a408.879007 408.879007 0 0 0 62.612562-218.385029V535.052807a90.883083 90.883083 0 0 1 66.407264 21.819529 92.400963 92.400963 0 0 1 22.768204 71.340375c-1.89735 76.652955-75.135075 157.859552-143.249954 195.427089zM230.54695 329.569761a15.937743 15.937743 0 0 0 31.875486 0 68.873819 68.873819 0 0 1 14.230128-43.639059 99.990365 99.990365 0 0 0 18.973504-60.904947 99.04169 99.04169 0 0 0-18.973504-60.904947 68.873819 68.873819 0 0 1-14.989068-43.639059 68.873819 68.873819 0 0 1 14.230128-43.639059 99.42116 99.42116 0 0 0 18.973504-60.904947 15.937743 15.937743 0 0 0-31.875487 0 68.873819 68.873819 0 0 1-14.230128 43.639059 99.04169 99.04169 0 0 0-18.973503 60.904947 99.990365 99.990365 0 0 0 18.973503 60.904947 68.873819 68.873819 0 0 1 14.230128 43.639059 68.873819 68.873819 0 0 1-14.230128 43.639059 99.04169 99.04169 0 0 0-18.973503 60.904947zM410.226031 329.569761a15.937743 15.937743 0 0 0 31.875486 0 68.873819 68.873819 0 0 1 14.419863-43.639059 101.128775 101.128775 0 0 0 18.973504-60.904947 100.1801 100.1801 0 0 0-18.973504-60.904947 68.873819 68.873819 0 0 1-14.419863-43.639059 68.873819 68.873819 0 0 1 14.419863-43.639059 100.749305 100.749305 0 0 0 18.973504-60.904947 15.937743 15.937743 0 0 0-31.875487 0 67.735409 67.735409 0 0 1-14.419862 43.639059 100.1801 100.1801 0 0 0-18.973504 60.904947 101.128775 101.128775 0 0 0 18.973504 60.904947 67.735409 67.735409 0 0 1 14.419862 43.639059 67.735409 67.735409 0 0 1-14.419862 43.639059 100.1801 100.1801 0 0 0-18.973504 60.904947zM590.094847 329.569761a15.937743 15.937743 0 0 0 31.875486 0 68.873819 68.873819 0 0 1 14.230128-43.639059 99.990365 99.990365 0 0 0 18.973504-60.904947 99.04169 99.04169 0 0 0-18.973504-60.904947 68.873819 68.873819 0 0 1-14.040393-43.639059 68.873819 68.873819 0 0 1 14.230128-43.639059 99.42116 99.42116 0 0 0 18.973504-60.904947 15.937743 15.937743 0 1 0-31.875487 0 68.873819 68.873819 0 0 1-14.230127 43.639059 99.04169 99.04169 0 0 0-18.973504 60.904947 99.990365 99.990365 0 0 0 18.973504 60.904947 68.873819 68.873819 0 0 1 14.230127 43.639059 68.873819 68.873819 0 0 1-14.230127 43.639059 99.04169 99.04169 0 0 0-18.973504 60.904947z" p-id="2335" fill="#e6e6e6"></path></svg>