<?xml version="1.0" standalone="no"?>
<!DOCTYPE svg PUBLIC "-//W3C//DTD SVG 1.1//EN" "http://www.w3.org/Graphics/SVG/1.1/DTD/svg11.dtd" >
<!--
2013-9-30: Created.
-->
<svg>
<metadata>
Created by iconfont
</metadata>
<defs>

<font id="iconfont" horiz-adv-x="1024" >
  <font-face
    font-family="iconfont"
    font-weight="500"
    font-stretch="normal"
    units-per-em="1024"
    ascent="896"
    descent="-128"
  />
    <missing-glyph />
    
    <glyph glyph-name="huishouzhan" unicode="&#58896;" d="M745.833653-51.106726 283.823184-51.106726c-9.139148 0-16.956184 6.558369-18.525935 15.559371L153.772222 601.715557c-0.963954 5.474688 0.551562 11.095709 4.123924 15.357779 3.573385 4.243651 8.845459 6.704702 14.402011 6.704702l685.061544 0c5.556553 0 10.829649-2.462075 14.402011-6.704702 3.573385-4.26207 5.088902-9.883091 4.123924-15.357779L764.360612-35.546332C762.789836-44.548356 754.9728-51.106726 745.833653-51.106726zM299.631218-13.48385l430.395424 0 104.940051 599.640036L194.691167 586.156186 299.631218-13.48385zM647.185912 673.799292c-7.302313 0-14.246469 4.28049-17.305131 11.407817l-37.46631 87.570451-135.829572 8.064676-47.569412-82.500992c-5.198395-8.982582-16.71673-12.087293-25.691125-6.907317-9.001001 5.179976-12.087293 16.679891-6.898107 25.681916l53.374628 92.585675c3.554966 6.191003 10.425444 9.6815 17.405415 9.386788l159.040203-9.442046c7.118118-0.422625 13.382798-4.831029 16.184611-11.370978l42.040489-98.261954c4.087085-9.552563-0.348947-20.611433-9.892301-24.689309C652.164297 674.277176 649.657196 673.799292 647.185912 673.799292zM917.558759 657.744641c-0.376577 0-0.753153 0.01842-1.12973 0.036839l-811.080679 48.185442c-10.379395 0.605797-18.278295 9.515724-17.663288 19.895119 0.605797 10.379395 9.718339 18.095124 19.885909 17.654079l811.080679-48.185442c10.379395-0.605797 18.278295-9.515724 17.663288-19.895119C935.726537 665.440927 927.432641 657.744641 917.558759 657.744641z"  horiz-adv-x="1024" />

    
    <glyph glyph-name="star_full" unicode="&#58919;" d="M958.733 484.651l-299.475 57.753-147.26 268.060-147.257-268.060-299.476-57.753 208.463-223.396-37.841-303.719 276.111 129.984 276.093-129.984-37.841 303.719z"  horiz-adv-x="1024" />

    
    <glyph glyph-name="wenhaofill" unicode="&#59180;" d="M512 832c-247.039484 0-448-200.960516-448-448S264.960516-64 512-64 960 136.960516 960 384 759.039484 832 512 832zM512 63.647359c-26.496224 0-48.00043 21.504206-48.00043 48.00043 0 26.496224 21.504206 48.00043 48.00043 48.00043s48.00043-21.504206 48.00043-48.00043S538.496224 63.647359 512 63.647359zM600.576482 390.815428c-27.839699-27.808735-56.575622-56.544658-56.575622-82.368284l0-54.112297c0-17.664722-14.336138-32.00086-32.00086-32.00086s-32.00086 14.336138-32.00086 32.00086l0 54.112297c0 52.352533 39.999785 92.352318 75.32751 127.647359 25.887273 25.887273 52.67249 52.639806 52.67249 73.984034 0 53.343368-43.07206 96.735385-95.99914 96.735385-53.823303 0-95.99914-41.535923-95.99914-94.559333 0-17.664722-14.336138-31.99914-32.00086-31.99914s-32.00086 14.336138-32.00086 31.99914c0 87.423948 71.775299 158.559333 160.00086 158.559333s160.00086-72.095256 160.00086-160.735385C672.00086 462.208843 635.680581 425.919527 600.576482 390.815428z"  horiz-adv-x="1024" />

    
    <glyph glyph-name="002dianhua" unicode="&#58881;" d="M411.416 564.788l-94.883-96.895c49.41-110.090 154.228-232.719 275.851-273.924l82.102 82.058c0 0 194.578-34.048 238.298-55.363 37.9-18.468 50.462-59.344 44.51-109.762-6.39-54.225-77.157-173.725-204.733-175.038-127.53-1.313-315.325 95.079-449.945 237.337-134.533 142.258-254.535 322.546-235.279 475.636 19.169 153.134 152.126 180.508 185.387 182.937 33.612 2.495 60.309-7.419 80.615-32.627 26.083-32.474 78.076-234.361 78.076-234.361v0 0zM303.623 767.484c-15.799 20.788-43.021 24.225-70.199 17.813-24.114-5.691-112.17-42.321-124.599-140.442-13.83-109.083 67.223-293.661 212.784-434.911 145.562-141.231 285.74-223.682 406.226-233.53 120.57-9.847 179.347 96.589 187.881 128.536 8.578 31.97 1.489 64.29-15.799 77.136-22.101 16.391-211.646 50.44-211.646 50.44l-85.998-85.058c-141.404 46.151-274.58 175.365-331.254 333.247l93.919 94.926c-0.001 0.023-45.473 171.099-61.315 191.843v0 0zM303.623 767.484z"  horiz-adv-x="1024" />

    
    <glyph glyph-name="weibiaoti40" unicode="&#58937;" d="M1008 384.8 1008 384.8l-160-144 0 0c-8.8-8-20-12.8-32-12.8-26.4 0-48 21.6-48 48 0 14.4 6.4 26.4 16 35.2l0 0 67.2 60L624 371.2l0 0L416 371.2l0 0L172.8 371.2l0 0L48 371.2c-26.4 0-48 21.6-48 48 0 26.4 21.6 48 48 48l304 0 112 0c0 0 0 0 0 0l96 0 0 0 291.2 0L784 528l0 0c-9.6 8.8-16 21.6-16 35.2 0 26.4 21.6 48 48 48 12 0 23.2-4.8 32-12.8l0 0 160-144 0 0c9.6-8.8 16-21.6 16-35.2C1024 405.6 1017.6 393.6 1008 384.8z"  horiz-adv-x="1024" />

    
    <glyph glyph-name="weixiu" unicode="&#59027;" d="M722.051 739.179c0 19.589-15.914 35.503-35.505 35.503l-426.048 0c-19.589 0-35.503-15.914-35.503-35.503l0-248.518 497.056 0 0 248.518zM367.009 561.665c0-19.553-15.95-35.503-35.504-35.503s-35.504 15.948-35.504 35.503l0 71.005c0 19.553 15.95 35.503 35.504 35.503s35.504-15.948 35.504-35.503l0-71.005zM331.505 668.173c-19.555 0-35.504-15.948-35.504-35.503l0-71.005c0-19.553 15.95-35.503 35.504-35.503s35.504 15.948 35.504 35.503l0 71.005c0 19.554-15.95 35.503-35.504 35.503zM331.505 384.154c-19.555 0-35.504-15.948-35.504-35.503l0-106.509c0-19.554 15.95-35.502 35.504-35.502s35.504 15.947 35.504 35.502l0 106.509c0 19.554-15.95 35.503-35.504 35.503zM722.051 739.179c0 19.589-15.914 35.503-35.505 35.503l-426.048 0c-19.589 0-35.503-15.914-35.503-35.503l0-248.518 497.056 0 0 248.518zM686.545 845.685l-426.048 0c-58.802 0-106.512-47.706-106.512-106.508l0-674.549c0-46.283 29.748-85.286 71.008-99.986l0-6.521c0-19.588 15.95-35.502 35.503-35.502l35.504 0c19.555 0 35.504 15.914 35.504 35.502l284.033 0c0-19.588 15.948-35.502 35.503-35.502l24.965 0c0.484 11.13 1.04 23.124 1.594 35.502l0.59 0c0.243 5.511 0.484 11.094 0.764 16.641l-0.592 0c0.868 19.172 1.733 38.066 2.497 54.362l-420.363 0c-19.589 0-35.503 15.917-35.503 35.502l0 355.03 497.056 0 0-43.651c7.905-5.062 15.187-8.979 18.828-9.013 9.604 0 44.379 27.979 52.178 34.358l0 337.828c0.002 58.8-47.706 106.507-106.51 106.507zM722.051 490.661l-497.056 0 0 248.518c0 19.589 15.914 35.503 35.503 35.503l426.048 0c19.591 0 35.505-15.914 35.505-35.503l0-248.518zM870.201 343.484c-6.068 5.998-6.588-2.878-6.588-2.878s0-64.695 0-73.468c0-8.773-9.673-16.677-9.673-16.677s-0.519-0.487-1.387-1.109c-6.206-5.131-34.257-27.597-41.989-27.597-2.945 0-8.839 3.123-15.151 7.21-12.55 8.009-27.252 19.729-27.252 19.729s-11.823 11.058-11.823 17.785c0 6.795 0.243 73.468 0.243 73.468s-0.659 8.737-6.865 2.288c-19.694-19.831-58.317-59.53-58.212-96.627l-0.105-7.765c-0.034-45.66 32.833-81.233 75.618-87.333l0-0.172c2.706-0.938 14.32-3.779 28.397-7.004 9.014-2.013 18.93-4.23 28.431-6.275 8.737-1.945 9.742-4.543 0.139-6.588-8.181-1.804-19.104-3.851-28.57-5.444-11.094-2.011-20.039-3.502-20.039-3.502s-2.982-1.283-5.894-4.368c-2.601-2.669-5.063-6.761-5.444-13.001-0.209-3.606-0.9-17.996-1.767-36.786-0.659-13.139-1.318-28.258-1.979-43.721-0.241-4.47-0.484-8.978-0.656-13.38-0.45-10.019-0.866-19.59-1.248-28.603-1.143-25.069-2.011-44.135-2.011-44.135 0.068-17.683 12.446-53.635 53.774-53.635 41.086 0.102 53.569 35.953 53.639 53.635l-8.946 179.627-1.733 33.387c42.716 6.415 75.549 42.124 75.618 87.474l0 7.871c0.001 38.275-38.97 78.286-58.526 97.598zM829.392-74.781c-10.435-10.435-27.25-10.435-37.652 0-10.403 10.297-10.403 27.216 0 37.617 10.403 10.367 27.217 10.367 37.652 0 10.403-10.401 10.403-27.321 0-37.617z"  horiz-adv-x="1024" />

    
    <glyph glyph-name="ai-r" unicode="&#58948;" d="M610.787 465.908c8.579 11.393 14.297 25.635 14.297 42.722 0 14.243-5.718 25.637-11.437 37.028-5.718 8.542-17.166 17.086-28.602 22.782-11.442 5.699-37.179 8.542-71.5 8.542h-94.379v-139.556h91.521c25.739 0 45.758 2.849 62.918 5.7 14.305 2.844 28.602 11.388 37.182 22.782v0zM512 896l-413.907-133.973 2.096-521.712 0.469-5.651c0.752-3.43 16.67-86.315 96.314-166.153 61.238-61.553 211.398-141.945 275.48-176.261 10.069-5.405 17.576-9.395 21.888-11.844l15.21-8.405 18.68 9.666c37.458 18.72 227.954 115.69 298.745 186.728 79.727 79.917 95.646 162.796 96.321 166.232l2.611 527.362-413.907 134.013zM733.755 155.471c-2.855-5.699-8.577-11.393-17.161-14.243-8.577-2.845-17.155-5.694-25.737-5.694-11.437 0-20.019 2.844-28.597 8.542-8.582 5.694-14.302 11.393-20.024 19.937-5.715 8.539-14.302 19.938-22.876 37.024l-40.039 68.353c-14.302 25.635-28.597 45.567-40.039 56.964-11.442 11.389-22.882 19.932-34.321 25.626-11.442 5.699-28.602 8.544-45.761 8.544h-37.176v-162.337c0-19.937-5.719-34.179-14.302-45.567-8.577-8.549-22.879-14.244-37.179-14.244-14.297 0-28.597 5.694-37.176 17.083-8.582 8.547-14.302 25.635-14.302 45.576l0 387.344c0 22.785 5.718 39.878 14.302 48.417 11.437 8.549 25.737 14.247 48.618 14.247h165.879c17.663 0 33.626 0 47.878-1.315 4.208-0.387 8.27-0.885 12.18-1.535 14.302-2.849 28.597-5.699 42.894-11.397 17.166-5.694 31.466-17.086 42.903-28.48 14.302-11.388 22.884-25.63 28.602-42.717 5.719-14.243 8.577-34.179 8.577-51.266 0-39.878-11.437-68.358-31.455-91.14-22.881-22.787-54.345-39.879-97.244-48.422 17.166-8.542 34.324-22.787 51.485-42.718 14.297-19.941 28.597-39.873 42.894-59.813 11.442-19.943 22.882-39.879 31.457-62.66 8.577-17.088 11.442-28.476 11.442-34.174 0.002-5.695-2.863-14.238-5.723-19.937v0zM733.755 155.471z"  horiz-adv-x="1024" />

    
    <glyph glyph-name="yunshupeisong" unicode="&#58962;" d="M780.190135 560.179558 611.66593 560.179558l0 62.753229c0 29.514197-14.223956 52.292993-40.964994 52.292993L112.452141 675.225781c-26.736944 0-48.489364-24.01188-48.489364-53.525054L63.962777 224.708064c0-29.510104 15.392572-51.500954 42.130539-51.500954l115.860774 0c0 0 14.32424-104.588033 115.859751-104.588033 109.123326 0 126.392642 98.373495 126.392642 104.588033l105.328907 0c0.864694 0-0.858554-0.051165 0 0l0 0 63.196321 0c0 0 10.532891-0.010233 10.532891 0 6.954389-69.25634 55.202253-105.062847 126.392642-104.588033 126.21868 0.840134 115.859751 115.045199 115.859751 115.045199l42.131563 0c27.353998 0 31.598672 5.859451 31.598672 31.376615l0 167.341263L780.190135 560.179558zM337.813842 99.995691c-40.177048 0.37146-84.261079 36.132942-84.261079 83.668585 0 50.356898 37.193087 90.766236 84.261079 94.129844 50.325176 3.594875 95.26776-42.433438 95.26776-92.790336C430.714695 122.320139 380.405893 99.52497 337.813842 99.995691zM580.068282 204.582701 464.206484 204.582701c-14.541181 60.242036-61.632709 104.588033-126.392642 104.588033-64.765049 0-101.316523-44.344974-115.859751-104.588033L95.561449 204.582701 95.561449 643.851213l484.506832 0L580.068282 204.582701zM769.658268 99.995691c-50.456159 0-94.15952 34.652218-94.15952 85.009116 0 50.356898 45.86663 92.184539 83.626629 92.790336 66.523089 1.067308 94.794993-43.772946 94.794993-94.129844C853.919347 133.307378 820.11238 99.995691 769.658268 99.995691L769.658268 99.995691zM885.518019 215.04089c-1.693572 44.270273-46.402843 96.207156-126.392642 94.129844-66.443271-1.725294-115.860774-52.752458-115.860774-104.588033l-31.598672 0c0.316202 2.465145 0 18.352997 0 20.916379L611.66593 528.803967l157.991314 0 157.991314-156.880003 0-156.88205L885.518019 215.041914z"  horiz-adv-x="1024" />

    
    <glyph glyph-name="boshimao1" unicode="&#58883;" d="M1016.84224 523.52l-503.2704 240.41472-506.4192-240.4096 506.4192-240.42496 395.63264 188.99968v-280.07936h41.00096v299.6736l66.6368 31.82592zM513.536 344.6272L136.704 523.52l376.832 178.8928 374.4768-178.8928-374.4768-178.8928z m268.56448-208.13824c-60.65664-35.9936-125.73184-58.64448-193.6384-67.34848-58.24512-7.4752-118.72256-4.7872-179.75296 8.00256-72.30976 15.15008-132.9664 42.50624-163.712 59.5968v183.83872h-41.00096v-222.1824l12.10368-7.7312c3.03616-1.9456 75.59168-47.7184 185.2672-70.95808 41.0112-8.68352 81.8176-13.03552 121.97376-13.03552 22.8864 0 45.568 1.41824 67.9424 4.2496 77.26592 9.7792 151.15264 36.59264 219.61216 79.68256l12.20608 7.68v222.28992h-41.00096v-184.08448z m0 0z"  horiz-adv-x="1024" />

    
    <glyph glyph-name="xinxi" unicode="&#58925;" d="M509.979-63.316c-247.308 0-447.794 200.486-447.794 447.794S262.671 832.272 509.979 832.272s447.794-200.486 447.794-447.794-200.485-447.794-447.794-447.794z m0 814.171c-202.346 0-366.377-164.031-366.377-366.377s164.031-366.377 366.377-366.377c202.342 0 366.377 164.031 366.377 366.377S712.321 750.855 509.979 750.855z m-40.708-610.628c-40.709 0-40.709 40.708-40.709 40.708l40.709 203.543s0 40.709-40.709 40.709c0 0-40.709 0-40.709 40.709h122.126s40.709 0 40.709-40.709-40.709-162.834-40.709-203.543 40.709-40.709 40.709-40.709h40.709c-0.001 0-0.001-40.708-122.126-40.708z m81.417 407.085c-22.483 0-40.709 18.225-40.709 40.709s18.225 40.709 40.709 40.709 40.709-18.225 40.709-40.709-18.226-40.709-40.709-40.709z"  horiz-adv-x="1024" />

    
    <glyph glyph-name="fuwufang" unicode="&#58993;" d="M409.258667 562.688a113.7664 113.7664 0 1 0 201.864533-7.031467c72.123733-27.5456 128.443733-86.084267 128.443733-171.656533 0-18.978133-18.978133-37.922133-37.922133-37.922133H322.3552c-18.944 0-37.888 18.944-37.888 37.922133 0 108.544 48.503467 158.856533 124.757333 178.688z m121.719466-254.532267c55.9104 0 94.788267-18.978133 132.7104-18.978133 37.956267 0 75.8784-56.251733 151.722667-56.251733 18.944 0 37.922133-19.592533 37.922133-38.570667v-75.844267c0-18.944-18.978133-37.888-37.922133-37.888-75.844267 0-177.595733-2.048-232.379733-12.970666-53.248-16.622933-91.067733-24.9856-146.875734-24.9856-75.844267 0-136.567467 27.886933-170.666666 53.930666C189.6448 154.555733 170.666667 237.6704 170.666667 270.2336c0 20.445867 18.978133 37.888 37.922133 37.888 18.978133 0 56.900267-18.944 56.900267-56.866133 0-1.979733 18.944-56.900267 75.844266-94.8224 45.192533-30.1056 132.744533-37.888 189.6448-18.944 19.387733 10.6496 18.944 42.154667 18.944 61.098666 0 14.7456-13.824 34.952533-51.746133 34.338134-40.618667-0.682667-62.020267 0-99.9424 0-21.504-1.706667-56.900267-0.6144-56.900267 37.307733 0 37.888 38.331733 37.888 56.900267 37.888h132.744533z"  horiz-adv-x="1024" />

    
    <glyph glyph-name="kafei" unicode="&#58892;" d="M521.9 121.7c-2.6 0-5.2 0-8.1 0.1-0.5 0-0.9 0.4-1 0.9s0.3 1 0.9 1c25.1 3.6 43.1 10.7 49.6 19.4 1.9 2.6 2.7 5.2 2.3 7.7-1.5 9.6-20.6 15.4-51.1 15.4-7.5 0-15.7-0.4-24.3-1.1-21-1.7-42.3-6.8-58.3-13.8-0.1-0.1-0.3-0.1-0.4-0.1-0.3 0-0.7 0.2-0.9 0.5-0.3 0.4-0.2 1 0.2 1.3 13.3 10.5 40.1 24 92 28.9 6.4 0.6 12.9 0.9 19.2 0.9 19.7 0 37.9-3 51-8.6 14.1-5.9 21.5-14 21.5-23.6 0-16-40.7-28.9-92.6-28.9zM523.9 245.8c-140.5 0-208.1 49.7-240.1 91.4-0.3 0.4-0.3 1 0.1 1.3 0.2 0.2 0.5 0.3 0.7 0.3 0.2 0 0.4-0.1 0.6-0.2 74.6-56.5 168-59.4 186-59.4H474.1c15.1-2 30-3 44.5-3 109.8 0 182.9 57 195.6 152.6 0.1 0.7 9.4 74.8 29.6 120.5 0.2 0.4 0.5 0.6 0.9 0.6h0.3c0.5-0.2 0.8-0.6 0.7-1.1-4.5-23.8-5.2-49.3-6-81.6-0.6-25.3-1.4-54-4-89.9-2.9-29.3-25.9-61.7-61.4-86.7-41.1-28.9-94.5-44.8-150.4-44.8zM500 38.2c-94.2 0-182.8 10.4-249.4 29.4-67 19.1-103.9 44.6-103.9 71.8 0 16.7 13.5 32.5 40 47 25.1 13.7 61.6 25.8 105.6 35h0.2c0.4 0 0.8-0.3 1-0.7 0.1-0.5-0.2-1-0.7-1.2-52.9-17-82.1-38.8-82.1-61.3 0-24.6 33.9-47.8 95.5-65.4 62-17.7 144.4-27.4 232.1-27.4 151.2 0 276.4 26.2 311.6 65.1 0.2 0.2 0.5 0.3 0.7 0.3 0.2 0 0.3 0 0.5-0.1 0.4-0.2 0.6-0.7 0.4-1.2-8.4-25-48.8-48.1-113.7-65-65-16.9-149.5-26.3-237.8-26.3zM820.4 365.4c-1.7 0-3.4 1.1-4.1 2.8-0.7 1.7-0.4 3.4 0.9 4.7 4.3 4.4 0.8 9.2-5.3 16.6-5.6 6.7-11.9 14.2-8 22.4 4.9 10.2 16.1 24.3 26.9 37.9 8.7 10.9 16.9 21.2 21.9 29.5 8.4 13.7 16.3 44 16.6 63.5-0.3 45.6-25.6 75.4-67.9 79.7-1.6 0.2-3.2 0.2-4.9 0.2-21.6 0-45.6-14.6-71.1-43.4-37.4-42.2-155.5-64.7-226.4-64.7-68.5 0-132.9 10.4-181.4 29.2-48.8 19-75.6 44.3-75.6 71.3 0 23.9 21.8 49.3 59.8 69.6 39.3 21 91.9 34.9 148.1 39.2 1.5 0.1 3.3 0.2 5.4 0.3 13.3 0.9 37.9 2.5 66.1 2.5 16 0 31-0.5 44.7-1.6h0.5c13.7-1 59.6-4.8 72.7-11.8 0.4-0.2 0.6-0.7 0.5-1.2-0.1-0.4-0.5-0.7-0.9-0.7h-0.1c-24 3.6-72.6 4.8-73 4.8-3.1 0.1-6.3 0.1-9.5 0.1-44.4 0-87.5-5.3-101.4-7.9-87.2-16.2-149-55.8-147-94.2 1.2-21.3 21.4-39.8 58.4-53.3 36-13.1 85.9-20.3 140.3-20.3 10 0 20.3 0.2 30.6 0.7 24 1.1 145.5 8.6 180.1 45.7 24.7 26.4 52.7 56.3 89.7 56.3h1.7c41.7-1 87.6-35.8 89.5-86 2-21-10-61.7-18.4-74.3-9.5-14.4-17.4-23-25-31.4-7.4-8.1-14.3-15.7-21.6-27.6-5.3-8.6-4.1-19.2-3-29.5 1.3-12 2.6-23.3-7.3-28.8-1-0.1-1.7-0.3-2.5-0.3z"  horiz-adv-x="1024" />

    
    <glyph glyph-name="icon-test" unicode="&#58898;" d="M325.02 444.13m-25 0a25 25 0 1 1 50 0 25 25 0 1 1-50 0ZM569.88 42.79H446.51c-70.6 0-137.16 27.67-187.41 77.92-50.1 50.1-77.76 116.42-77.92 186.8L171.21 516v1.2a37 37 0 0 0 37 37h600a37 37 0 0 0 37-37v-1.2l-10-208.49c-0.15-70.38-27.81-136.7-77.92-186.8-50.29-50.25-116.8-77.92-187.41-77.92z m-348 461.41l9.32-194.88v-1.2c0-57.25 22.47-111.25 63.27-152.06s94.81-63.27 152.06-63.27h123.35c57.25 0 111.25 22.47 152.06 63.27s63.27 94.81 63.27 152.06v1.2l9.32 194.88zM850.63 268.74a100.12 100.12 0 0 0-13.09 0.86 59 59 0 0 0-50.69 66.06l14.4 109.25a59 59 0 0 0 66.06 50.69l23.52-3.1a76.11 76.11 0 0 0 65.44-85.3l-6.81-51.74a99.91 99.91 0 0 0-98.83-86.72z m9 177.36a9 9 0 0 1-8.81-7.72l-14.4-109.25a9 9 0 0 1 7.65-10A49.82 49.82 0 0 1 899.89 362l6.81 51.73a26.05 26.05 0 0 1-22.4 29.2L860.78 446a7.67 7.67 0 0 1-1.15 0.1zM851.72-35H162.25a25 25 0 0 0 0 50h689.47a25 25 0 0 0 0-50zM325 232a25 25 0 0 0-25 25V368.81a25 25 0 0 0 50 0V257a25 25 0 0 0-25-25zM425 622.56a40.86 40.86 0 0 0-8.71 15.15c-4.19 12.71-2.67 27.15 4.5 42.92 31.73 69.76-8.58 112.71-10.31 114.5a25 25 0 0 1-36-34.72 40.32 40.32 0 0 0 6.24-12.67c4.17-13.66 2.33-29.28-5.46-46.41-16.51-36.29-11.88-65.27-5.09-83.19a92.18 92.18 0 0 1 15-26 25.71 25.71 0 0 1 3.53-4c1.12-1.16 2-2 2.43-2.38l0.24 0.27a25 25 0 0 1 33.36 36.75zM541.58 622.56a40.55 40.55 0 0 0-8.71 15.15c-4.19 12.71-2.68 27.15 4.5 42.92 31.72 69.76-8.58 112.71-10.32 114.5a25 25 0 0 1-36-34.72 40 40 0 0 0 6.25-12.67c4.16-13.66 2.33-29.28-5.47-46.41-16.5-36.29-11.87-65.27-5.09-83.19a92.42 92.42 0 0 1 15-26 25.27 25.27 0 0 1 3.54-4c1.11-1.16 2-2 2.42-2.38l0.25 0.27a25 25 0 0 1 33.36 36.75zM650.64 622.56a40.64 40.64 0 0 0-8.72 15.15c-4.18 12.71-2.67 27.15 4.5 42.92 31.73 69.76-8.58 112.71-10.31 114.5a25 25 0 0 1-36-34.72 40 40 0 0 0 6.25-12.67c4.16-13.66 2.32-29.28-5.47-46.41-16.5-36.29-11.88-65.27-5.09-83.19a92.18 92.18 0 0 1 15-26 25.27 25.27 0 0 1 3.54-4c1.11-1.16 2-2 2.42-2.38l0.24 0.27a25 25 0 0 1 33.36 36.75 3.44 3.44 0 0 0 0.28-0.22z"  horiz-adv-x="1024" />

    
    <glyph glyph-name="fuwu" unicode="&#60214;" d="M640 153.6V42.666667h-85.333333v174.933333c106.666667 17.066667 192 102.4 209.066666 209.066667h85.333334c-12.8-123.733333-98.133333-230.4-209.066667-273.066667z m-256 0c-115.2 42.666667-196.266667 149.333333-213.333333 273.066667h85.333333c17.066667-106.666667 102.4-192 209.066667-209.066667V42.666667H384v110.933333zM605.866667 682.666667C674.133333 682.666667 725.333333 635.733333 725.333333 563.2c0-59.733333-51.2-123.733333-89.6-157.866667-25.6-25.6-68.266667-51.2-123.733333-81.066666-55.466667 29.866667-98.133333 55.466667-123.733333 81.066666-42.666667 38.4-89.6 98.133333-89.6 157.866667C298.666667 635.733333 349.866667 682.666667 418.133333 682.666667c38.4 0 68.266667-17.066667 93.866667-46.933334 25.6 29.866667 55.466667 46.933333 93.866667 46.933334z"  horiz-adv-x="1024" />

    
    <glyph glyph-name="weibiaoti-" unicode="&#58901;" d="M479.07093 551.656009h-50.804851c-18.063947 0-33.117236 14.676957-33.117237 33.117236V668.695333h116.662992v-83.922088c0-18.063947-14.676957-33.117236-32.740904-33.117236zM410.202132 653.642043v-68.868798c0-9.784638 7.902977-18.063947 18.063947-18.063947h50.804851c9.784638 0 18.063947 7.902977 18.063947 18.063947V653.642043H410.202132zM543.423741 54.1448h-164.457185c-95.964719 0-174.241823 78.277104-174.241822 174.241823v132.092613c0 23.332598 18.816612 42.14921 42.149209 42.149209h428.642411c23.332598 0 42.14921-18.816612 42.14921-42.149209v-132.092613c-0.376332-95.964719-78.277104-174.241823-174.241823-174.241823z m-296.549798 333.430356c-15.053289 0-27.095921-12.042631-27.09592-27.09592v-132.092613c0-87.68541 71.503124-159.188534 159.188533-159.188534h164.457185c87.68541 0 159.188534 71.503124 159.188534 159.188534v132.092613c0 15.053289-12.042631 27.095921-27.095921 27.09592H246.873943zM900.939361-11.337008H198.703418c-19.192944 0-34.998897 15.805954-34.998898 34.998897 0 19.569276 15.805954 34.998897 34.998898 34.998897l536.649761 0.376333h7.526645c46.665197 0 84.674752 38.009555 84.674752 84.674752L827.930908 568.590959c0 22.579934-8.655641 44.030871-24.837927 59.836825-16.182286 16.182286-37.256891 24.837927-59.836825 24.837927H217.520029c-29.730246 0-53.815509 24.085263-53.815509 53.815509v18.440279c0 29.730246 24.085263 53.815509 53.815509 53.815509h683.419332c29.730246 0 53.815509-24.085263 53.815509-53.815509v-683.419331c0-29.353914-24.085263-53.439177-53.815509-53.439176z m-150.532893 55.69717l-7.526644-0.376333-544.176406-0.376332c-10.913635 0-19.945608-9.031974-19.945608-19.945608s9.031974-19.945608 19.945608-19.945608h701.85961c21.450937 0 38.76222 17.311283 38.76222 38.76222V725.521499c0 21.450937-17.311283 38.76222-38.76222 38.76222H217.520029c-21.450937 0-38.76222-17.311283-38.762219-38.76222v-18.440279c0-21.450937 17.311283-38.76222 38.762219-38.76222h525.736127c26.719588 0 51.933848-10.537302 70.750459-29.353914s29.353914-44.030871 29.353914-70.750459V143.335538c-0.752664-51.933848-41.396545-95.212054-92.954061-98.975376zM212.251378 108.712973c-95.588387 0-115.157663 58.707828-115.910327 61.718486v0.376332c-15.805954 64.729144-10.16097 112.899669 16.558618 143.38258 34.622565 39.514884 91.448732 33.869901 93.706726 33.493569l-1.505329-15.05329 0.752664 7.526645-0.752664-7.526645c-0.376332 0-51.557516 4.892319-80.91143-28.601249-23.332598-26.719588-27.848585-70.374127-13.54796-129.458287 1.505329-4.515987 24.085263-63.223815 135.855935-48.546858l1.881661-15.053289c-13.171628-1.505329-25.214259-2.257993-36.127894-2.257994z"  horiz-adv-x="1024" />

    
    <glyph glyph-name="wuliupeisong-" unicode="&#60650;" d="M724.8 194.4H514.4c-8.8 0-16 7.2-16 16 0 28.8-24.8 52-54.4 52-30.4 0-54.4-23.2-54.4-52 0-8.8-7.2-16-16-16H264c-8.8 0-16 7.2-16 16V625.6c0 8.8 7.2 16 16 16h460.8c8.8 0 16-7.2 16-16v-414.4c0-9.6-7.2-16.8-16-16.8z m-196 32h180V609.6H280v-382.4h79.2c8 38.4 43.2 68 84.8 68s76.8-29.6 84.8-68.8zM1004 194.4h-80c-8.8 0-16 7.2-16 16 0 28.8-24.8 52-54.4 52s-54.4-23.2-54.4-52c0-8.8-7.2-16-16-16h-57.6c-8.8 0-16 7.2-16 16V507.2c0 8.8 7.2 16 16 16h164c4 0 8-1.6 11.2-4.8L1015.2 408c3.2-3.2 4.8-7.2 4.8-11.2v-185.6c0-9.6-7.2-16.8-16-16.8z m-65.6 32h49.6V389.6l-105.6 101.6H740.8v-264.8H768c8 38.4 43.2 68 84.8 68s77.6-28.8 85.6-68zM444 126.4c-48 0-86.4 37.6-86.4 84s39.2 84 86.4 84 86.4-37.6 86.4-84-38.4-84-86.4-84z m0 136c-30.4 0-54.4-23.2-54.4-52s24.8-52 54.4-52c30.4 0 54.4 23.2 54.4 52s-24.8 52-54.4 52zM444 182.4c-16.8 0-30.4 12.8-30.4 28s13.6 28 30.4 28c16.8 0 30.4-12.8 30.4-28s-13.6-28-30.4-28z m0 40c-8 0-14.4-5.6-14.4-12s6.4-12 14.4-12 14.4 5.6 14.4 12-6.4 12-14.4 12zM853.6 126.4c-48 0-86.4 37.6-86.4 84s39.2 84 86.4 84 86.4-37.6 86.4-84-39.2-84-86.4-84z m0 136c-30.4 0-54.4-23.2-54.4-52s24.8-52 54.4-52 54.4 23.2 54.4 52-24.8 52-54.4 52zM853.6 182.4c-16.8 0-30.4 12.8-30.4 28s13.6 28 30.4 28 30.4-12.8 30.4-28-13.6-28-30.4-28z m0 40c-8 0-14.4-5.6-14.4-12s6.4-12 14.4-12 14.4 5.6 14.4 12-6.4 12-14.4 12zM208.8 520H74.4c-8.8 0-16 7.2-16 16s7.2 16 16 16h134.4c8.8 0 16-7.2 16-16s-7.2-16-16-16zM154.4 444.8H20c-8.8 0-16 7.2-16 16s7.2 16 16 16h134.4c8.8 0 16-7.2 16-16s-7.2-16-16-16zM208.8 359.2H74.4c-8.8 0-16 7.2-16 16s7.2 16 16 16h134.4c8.8 0 16-7.2 16-16s-7.2-16-16-16zM154.4 284H20c-8.8 0-16 7.2-16 16s7.2 16 16 16h134.4c8.8 0 16-7.2 16-16s-7.2-16-16-16z"  horiz-adv-x="1024" />

    
    <glyph glyph-name="weibiaoti--" unicode="&#58911;" d="M507.4 374.3m-77.6 0a77.6 77.6 0 1 1 155.2 0 77.6 77.6 0 1 1-155.2 0ZM232.8 83.4c-77 72.9-125.3 176.5-125.3 290.9 0 112.3 46.3 213.7 120.8 286.4l-55.9 59.8C81.8 632.9 25.5 510.2 25.5 374.3c0-138 58-262.5 151-350.3l56.3 59.4zM835.3 727.4L776.7 670c80.3-73.1 130.6-178.5 130.6-295.7 0-117.2-50.9-223.5-131.2-296.7l59.1-56.5c94.8 88 154.1 213.7 154.1 353.2s-59.3 265.1-154 353.1zM273.5 374c0 64.4 26 122.7 68.2 165l-56.3 60.2c-58.2-57.3-94.3-137.1-94.3-225.2 0-90.3 37.8-171.7 98.5-229.3l56.3 59.9c-44.6 42.5-72.4 102.8-72.4 169.4zM823.6 374c0 94.3-41.3 179-106.8 236.9l-58.5-57.4c51-42.9 83-107.7 83-179.6 0-71.9-36.3-135.4-81-178.1l56.4-58.9c65.5 58 106.9 142.7 106.9 237.1zM201.5 691.6m-40.9 0a40.9 40.9 0 1 1 81.8 0 40.9 40.9 0 1 1-81.8 0ZM314 569.6m-40.9 0a40.9 40.9 0 1 1 81.8 0 40.9 40.9 0 1 1-81.8 0ZM686.4 583.7m-40.9 0a40.9 40.9 0 1 1 81.8 0 40.9 40.9 0 1 1-81.8 0ZM206.5 52m-40.9 0a40.9 40.9 0 1 1 81.8 0 40.9 40.9 0 1 1-81.8 0ZM317.8 174.7m-40.9 0a40.9 40.9 0 1 1 81.8 0 40.9 40.9 0 1 1-81.8 0ZM690.4 168.1m-40.9 0a40.9 40.9 0 1 1 81.8 0 40.9 40.9 0 1 1-81.8 0ZM804.4 48.1m-40.9 0a40.9 40.9 0 1 1 81.8 0 40.9 40.9 0 1 1-81.8 0ZM806 698.7m-40.9 0a40.9 40.9 0 1 1 81.8 0 40.9 40.9 0 1 1-81.8 0Z"  horiz-adv-x="1024" />

    
    <glyph glyph-name="wifi" unicode="&#59020;" d="M512 85.333333m-42.666667 0a42.666667 42.666667 0 1 1 85.333334 0 42.666667 42.666667 0 1 1-85.333334 0ZM512 298.666667a213.333333 213.333333 0 0 1-148.053333-59.733334 42.666667 42.666667 0 1 1 59.306666-61.44 131.413333 131.413333 0 0 0 177.493334 0 42.666667 42.666667 0 1 1 59.306666 61.44A213.333333 213.333333 0 0 1 512 298.666667zM512 512a384 384 0 0 1-276.053333-117.333333A42.666667 42.666667 0 0 1 298.666667 335.36a298.666667 298.666667 0 0 0 430.08 0 42.666667 42.666667 0 0 1 30.293333-12.8 42.666667 42.666667 0 0 1 30.72 72.106667A384 384 0 0 1 512 512zM926.72 557.653333a597.333333 597.333333 0 0 1-829.44 0 42.666667 42.666667 0 0 1 58.88-61.44 512 512 0 0 0 711.68 0 42.666667 42.666667 0 0 1 29.44-11.946666 42.666667 42.666667 0 0 1 30.72 13.226666 42.666667 42.666667 0 0 1-1.28 60.16z"  horiz-adv-x="1024" />

    
    <glyph glyph-name="xizhuang" unicode="&#58887;" d="M521.31-117.71000000000004c-8.55 0-16.9 3.92-22.32 11.14L164.52 339.4a27.908 27.908 0 0 0-2.63 29.2l46.76 93.53-60.12 60.12a27.89 27.89 0 0 0-6.02 30.43l92.91 222.98c4.52 10.85 15.18 17.69 27.12 17.11 11.74-0.58 21.86-8.47 25.28-19.73l260.15-854.76c3.94-12.94-1.99-26.84-14.05-32.97a27.914 27.914 0 0 0-12.61-3.02zM219.45 359.07000000000005l229.01-305.35-191.41 628.91-55.91-134.17 61.13-61.13c8.48-8.47 10.59-21.45 5.23-32.17l-48.05-96.09zM521.27-117.71000000000004c-4.26 0-8.57 0.98-12.59 3.01-12.07 6.13-17.99 20.03-14.05 32.97l260.15 854.76c3.42 11.25 13.54 19.14 25.28 19.73 11.79 0.36 22.59-6.26 27.12-17.11l92.91-222.98a27.89 27.89 0 0 0-6.02-30.43l-60.12-60.12 46.76-93.53c4.72-9.44 3.7-20.74-2.63-29.2l-334.47-445.96c-5.43-7.22-13.79-11.14-22.34-11.14z m264.26 800.34L594.12 53.72000000000003l229.01 305.35-48.04 96.08c-5.36 10.72-3.26 23.7 5.23 32.17l61.13 61.13-55.92 134.18zM869.04-127H154.96c-33.11 0-60.89 24.81-64.62 57.71L4.74 684.05c-3.6 31.72 16.05 61.12 46.74 69.88L281.36 819.6l15.32-53.6L66.8 700.33a9.285 9.285 0 0 1-6.68-10l85.61-753.34c0.54-4.7 4.51-8.24 9.24-8.24h714.07c4.73 0 8.7 3.54 9.24 8.24l85.61 753.34c0.51 4.54-2.3 8.75-6.68 10L749.32 766l15.32 53.6 207.88-65.67c30.69-8.76 50.35-38.16 46.74-69.88l-85.61-753.34c-3.72-32.9-31.5-57.71-64.61-57.71zM329.9 597.6700000000001c-14.89 0-29.44 4.86-41.65 14.19-17.22 13.14-27.1 33.12-27.1 54.78V826.04c0 21.67 9.88 41.65 27.1 54.78C305.46 893.96 327.36 898.2 348.23 892.54l194.51-53.06V653.2l-194.52-53.06a69.793 69.793 0 0 0-18.32-2.47z m0.08 241.58c-3.67 0-6.41-1.6-7.9-2.72-1.94-1.49-5.19-4.81-5.19-10.49v-159.4c0-5.68 3.25-9 5.19-10.49 1.93-1.47 6.01-3.76 11.47-2.23L487 695.77V796.92L333.56 838.76c-1.27 0.35-2.47 0.49-3.58 0.49zM720.37 597.6700000000001c-6.1 0-12.26 0.82-18.33 2.47L507.53 653.2V839.49L702.06 892.55c20.9 5.66 42.75 1.42 59.96-11.72 17.22-13.14 27.1-33.12 27.1-54.78v-159.4c0-21.67-9.88-41.65-27.1-54.78-12.21-9.33-26.77-14.2-41.65-14.2z m-157.1 98.1l153.45-41.85c5.51-1.52 9.55 0.76 11.47 2.23 1.94 1.49 5.19 4.81 5.19 10.49V826.04c0 5.68-3.25 9-5.19 10.49-1.92 1.47-5.97 3.7-11.46 2.23L563.27 796.92v-101.15zM614.2 774.22H428.38c-15.33 0-27.87-12.54-27.87-27.87 0-15.33 12.54-27.87 27.87-27.87H614.2c15.33 0 27.87 12.54 27.87 27.87 0 15.32-12.54 27.87-27.87 27.87z"  horiz-adv-x="1024" />

    
    <glyph glyph-name="shouji" unicode="&#59167;" d="M745.6 864H278.4C230.4 864 192 822.4 192 774.4v-780.8C192-54.4 230.4-96 278.4-96h464c48 0 86.4 41.6 86.4 89.6V774.4C832 822.4 793.6 864 745.6 864z m28.8-870.4c0-16-12.8-28.8-28.8-28.8H278.4c-16 0-28.8 12.8-28.8 28.8V774.4c0 16 12.8 28.8 28.8 28.8h48l22.4-32c9.6-16 28.8-25.6 48-25.6h227.2c19.2 0 38.4 9.6 48 25.6l22.4 32h48c16 0 28.8-12.8 28.8-28.8v-780.8zM598.4 54.4h-176c-16 0-28.8-12.8-28.8-28.8s12.8-28.8 28.8-28.8h176c16 0 28.8 12.8 28.8 28.8s-12.8 28.8-28.8 28.8z"  horiz-adv-x="1024" />

    
    <glyph glyph-name="shoutibao" unicode="&#59556;" d="M741.361552 583.201411h-58.875485c-20.54321 75.400353-88.674427 131.386243-170.486067 131.386243s-149.942857-55.985891-170.486067-131.386243H282.683598A99.465256 99.465256 0 0 1 183.308642 483.826455V152.832451c0-54.766843 44.562963-99.374956 99.374956-99.374955H741.361552c54.766843 0 99.329806 44.608113 99.329806 99.374955V483.826455a99.465256 99.465256 0 0 1-99.329806 99.374956z m-229.361552 86.236332c56.708289 0 104.567196-36.07478 123.439859-86.236332H388.560141a132.153792 132.153792 0 0 0 123.439859 86.236332z m41.402469-265.616932c0-22.845855-18.556614-41.447619-41.402469-41.447619a41.447619 41.447619 0 0 0 0 82.895238 41.537919 41.537919 0 0 0 41.402469-41.447619z m242.138977-250.98836c0-29.889242-24.290653-54.225044-54.179894-54.225044H282.683598A54.315344 54.315344 0 0 0 228.458554 152.832451v89.261376c15.621869-10.24903 34.223633-16.299118 54.225044-16.299118h458.632804a98.878307 98.878307 0 0 1 54.225044 16.299118v-89.261376z"  horiz-adv-x="1024" />

    
    <glyph glyph-name="suo" unicode="&#58928;" d="M892-84.6H122c-22.1 0-20 17.9-20 40V491.2c0 22.1 17.9 40 40 40h750c22.1 0 40-17.9 40-40v-535.8c0-22.1-17.9-40-40-40zM142 485.2v-523.8c0-3.3 2.7-6 6-6h738c3.3 0 6 2.7 6 6V485.2c0 3.3-2.7 6-6 6H148c-3.3 0-6-2.7-6-6zM791.2 491.6H242.8v100c0 58.5 22.9 113.7 64.6 155.4s96.8 64.6 155.4 64.6h108.4c58.5 0 113.7-22.9 155.4-64.6 41.7-41.7 64.6-96.8 64.6-155.4v-100z m-508.4 40h468.4v60c0 99.3-80.7 180-180 180H462.8c-99.3 0-180-80.7-180-180v-60zM597 283.3H437c-11 0-20 9-20 20s9 20 20 20h160c11 0 20-9 20-20s-9-20-20-20zM497 143.3v160c0 11 9 20 20 20s20-9 20-20v-160c0-11-9-20-20-20-11.1 0-20 9-20 20z"  horiz-adv-x="1024" />

    
    <glyph glyph-name="8" unicode="&#58900;" d="M104.618667 545.578667l113.194666 239.701333c5.76 13.226667 24.106667 25.6 40.448 25.6h507.733334c16.64 0 36.48-12.885333 39.253333-22.4l114.133333-242.901333a21.333333 21.333333 0 0 1 38.570667 18.176l-112.938667 239.744c-7.210667 25.813333-44.373333 50.048-79.018666 50.048h-507.733334c-33.493333 0-67.072-22.613333-79.317333-50.602667L66.048 563.7546669999999a21.333333 21.333333 0 0 1 38.570667-18.176zM490.666667 554.666667c0-33.066667-38.912-64-85.333334-64-56.405333 0-85.333333 25.557333-85.333333 64a21.333333 21.333333 0 0 1-42.666667 0c0-63.274667 49.066667-106.666667 128-106.666667 68.096 0 128 47.616 128 106.666667a21.333333 21.333333 0 1 1-42.666666 0zM704 554.666667c0-33.066667-38.912-64-85.333333-64-56.405333 0-85.333333 25.557333-85.333334 64a21.333333 21.333333 0 1 1-42.666666 0c0-63.274667 49.066667-106.666667 128-106.666667 68.096 0 128 47.616 128 106.666667a21.333333 21.333333 0 1 1-42.666667 0zM277.333333 554.666667c0-33.066667-38.912-64-85.333333-64-56.405333 0-85.333333 25.557333-85.333333 64a21.333333 21.333333 0 0 1-42.666667 0c0-63.274667 49.066667-106.666667 128-106.666667 68.096 0 128 47.616 128 106.666667a21.333333 21.333333 0 0 1-42.666667 0zM917.333333 554.666667c0-33.066667-38.912-64-85.333333-64-56.405333 0-85.333333 25.557333-85.333333 64a21.333333 21.333333 0 1 1-42.666667 0c0-63.274667 49.066667-106.666667 128-106.666667 68.096 0 128 47.616 128 106.666667a21.333333 21.333333 0 1 1-42.666667 0zM874.581333 319.23199999999997v-341.418667a21.162667 21.162667 0 0 0-21.034666-21.248H170.325333a21.12 21.12 0 0 0-21.077333 21.248v341.418667a21.333333 21.333333 0 1 1-42.666667 0v-341.418667c0-35.285333 28.501333-63.914667 63.744-63.914666h683.221334c35.2 0 63.701333 28.629333 63.701333 63.914666v341.418667a21.333333 21.333333 0 1 1-42.666667 0zM320-42.66666699999996v170.666667c0 11.861333 9.472 21.333333 21.333333 21.333333h128c11.861333 0 21.333333-9.472 21.333334-21.333333v-170.666667a21.333333 21.333333 0 1 1 42.666666 0v170.666667c0 35.456-28.586667 64-64 64H341.333333c-35.456 0-64-28.586667-64-64v-170.666667a21.333333 21.333333 0 1 1 42.666667 0z"  horiz-adv-x="1024" />

    
    <glyph glyph-name="huishou" unicode="&#59215;" d="M234.071415 491.794732c5.794341 22.677854 13.886439 44.65639 24.376195 65.635902 33.467317 67.534049 88.913171 123.779122 160.942829 157.246439L377.131707 805.08878C245.460293 743.948488 156.247415 623.266341 130.872195 486.999415l-66.335219-3.096976L193.810732 281.99961l110.292292 213.091902-70.031609-3.29678z m378.830048-386.22283c-22.577951-6.193951-45.555512-10.190049-68.932683-11.788487-75.226537-4.795317-151.651902 15.085268-216.788292 60.740683L270.036293 72.803902c118.784-83.418537 267.938341-100.302049 398.610731-54.147122l35.864976-55.945365L814.604488 175.703415l-239.566049-10.989269 37.863024-59.142244z m192.412098 613.001366l30.470244 59.042342-239.566049-10.989269 129.373659-201.902829 32.268487 62.339122c16.583805-16.384 31.669073-34.466341 44.656391-53.847414 41.75922-62.838634 62.838634-138.964293 55.745561-218.087025l99.502829-8.691512c12.787512 144.458927-47.153951 282.024585-152.451122 372.136585z"  horiz-adv-x="1024" />

    


  </font>
</defs>
</svg>
