<?xml version="1.0" encoding="utf-8"?>
<svg viewBox="0 0 60 60" width="60" height="60" xmlns="http://www.w3.org/2000/svg">
  <defs>
    <style>.a{fill:#fff;}</style>
  </defs>
  <rect class="a" x="25.136" y="42.325" width="2.551" height="1.081" transform="matrix(0.5003039911434647, -0.8658500442780559, 0.8658540377893154, 0.5002999976322053, -26.469435132584493, 41.42565216758328)" style=""/>
  <rect class="a" x="20.724" y="37.914" width="2.551" height="1.081" transform="matrix(0.8660260567967003, -0.49999902397392715, 0.5000000074505805, 0.8660240302387477, -18.825931829600506, 13.29598255896542)" style=""/>
  <rect class="a" x="21.534" y="25.222" width="1.085" height="2.56" transform="matrix(0.498283006225273, -0.8670110831709364, 0.8670140634032196, 0.49828500298090267, -14.414993500932951, 29.393160304325217)" style=""/>
  <rect class="a" x="25.871" y="20.724" width="1.081" height="2.551" transform="matrix(0.8662859926564391, -0.49954799562019087, 0.4995470121435374, 0.8662869463307699, -10.004186779323021, 13.27440949193253)" style=""/>
  <rect class="a" x="29.348" y="39.079" width="1.081" height="5.092" style="" transform="matrix(0.9999999999999999, 0, 0, 0.9999999999999999, -8.881784197001252e-16, 0)"/>
  <rect class="a" x="15.294" y="29.037" width="5.092" height="1.081" style="" transform="matrix(0.9999999999999999, 0, 0, 0.9999999999999999, -8.881784197001252e-16, 0)"/>
  <path class="a" d="M 43.175 29.037 C 43.096 27.073 42.578 25.153 41.661 23.414 L 41.661 23.414 L 41.121 22.475 L 41.121 22.475 C 40.069 20.814 38.663 19.409 37.002 18.356 L 37.002 18.356 L 36.061 17.815 L 36.061 17.815 C 34.32 16.897 32.396 16.379 30.429 16.301 L 30.429 14.983 L 29.348 14.983 L 29.348 20.075 L 30.429 20.075 L 30.429 18.853 C 35.944 19.109 40.357 23.522 40.613 29.037 L 39.391 29.037 L 39.391 30.118 L 40.613 30.118 C 40.448 33.755 38.444 37.059 35.294 38.885 L 35.294 38.885 L 34.829 39.156 L 36.106 41.317 L 37.045 40.777 L 37.045 40.777 C 38.705 39.726 40.112 38.319 41.165 36.659 L 41.165 36.659 L 41.705 35.718 L 41.705 35.718 C 42.624 33.977 43.14 32.052 43.218 30.086 L 44.483 30.086 L 44.483 29.003 L 43.175 29.003 Z" style="" transform="matrix(0.9999999999999999, 0, 0, 0.9999999999999999, -8.881784197001252e-16, 0)"/>
  <path class="a" d="M 23.402 26.149 L 24.484 27.058 C 24.77 26.415 25.401 25.995 26.105 25.976 C 26.788 25.831 27.429 26.36 27.413 27.058 C 27.335 27.892 27.015 28.684 26.494 29.339 L 23.402 33.901 L 23.402 34.4 L 29.737 34.4 L 29.737 32.821 L 26.158 32.821 L 28.136 29.805 C 28.745 29.007 29.12 28.056 29.218 27.058 C 29.23 26.359 28.918 25.694 28.376 25.253 C 27.7 24.769 26.879 24.531 26.05 24.583 C 25.478 24.576 24.916 24.735 24.429 25.037 C 23.992 25.309 23.637 25.693 23.402 26.149 Z" style="" transform="matrix(0.9999999999999999, 0, 0, 0.9999999999999999, -8.881784197001252e-16, 0)"/>
  <path class="a" d="M 37.067 30.821 C 37.117 29.974 36.837 29.142 36.289 28.496 C 35.716 27.93 34.93 27.632 34.126 27.674 C 33.757 27.659 33.387 27.725 33.045 27.868 L 33.045 26.139 L 36.601 26.139 L 36.601 24.67 L 31.413 24.67 L 31.413 29.459 L 32.051 29.901 C 32.436 29.431 33.001 29.145 33.607 29.112 C 34.073 29.068 34.534 29.235 34.861 29.565 C 35.169 29.982 35.321 30.489 35.294 31.003 C 35.294 32.367 34.739 33.047 33.629 33.047 C 32.955 32.975 32.321 32.686 31.824 32.226 L 31.142 33.642 C 31.842 34.216 32.723 34.523 33.629 34.506 C 35.914 34.506 37.059 33.278 37.067 30.821 Z" style="" transform="matrix(0.9999999999999999, 0, 0, 0.9999999999999999, -8.881784197001252e-16, 0)"/>
</svg>