<?xml version="1.0" encoding="utf-8"?>
<svg viewBox="0 0 60 60" width="60" height="60" xmlns="http://www.w3.org/2000/svg">
  <defs>
    <style>.a{fill:#fff;}</style>
  </defs>
  <path class="a" d="M 27.27 31.525 L 27.18 31.995 L 27.65 34.465 C 28.017 33.658 28.234 32.79 28.29 31.905 C 28.298 31.776 28.281 31.647 28.24 31.525 L 27.24 31.525 Z" style="" transform="matrix(0.9999999999999999, 0, 0, 0.9999999999999999, -8.881784197001252e-16, 0)"/>
  <path class="a" d="M 44.88 27.675 C 44.582 27.396 44.189 27.238 43.78 27.235 L 42 27.235 L 42.39 25.235 C 42.543 24.718 42.138 24.206 41.6 24.235 L 26.67 24.235 C 26.132 24.206 25.727 24.718 25.88 25.235 L 26.28 27.325 L 26.61 27.325 C 27.389 27.306 27.979 28.024 27.81 28.785 L 27.66 29.525 L 28.31 29.525 C 28.791 29.535 29.251 29.724 29.6 30.055 C 30.082 30.55 30.333 31.225 30.29 31.915 C 30.231 33.857 29.495 35.717 28.21 37.175 L 28.21 37.175 L 28.57 39.215 C 28.688 39.733 29.139 40.106 29.67 40.125 L 38.51 40.125 C 39.043 40.107 39.498 39.734 39.62 39.215 L 40.19 36.325 L 41.09 36.325 C 41.816 36.286 42.513 36.028 43.09 35.585 C 44.38 34.485 45.49 31.275 45.49 29.415 C 45.533 28.776 45.313 28.147 44.88 27.675 Z M 27 27.215 L 26.6 25.125 C 26.59 25.099 26.59 25.071 26.6 25.045 C 26.626 25.035 26.654 25.035 26.68 25.045 L 41.59 25.045 C 41.616 25.035 41.644 25.035 41.67 25.045 C 41.679 25.071 41.679 25.099 41.67 25.125 L 41.26 27.215 L 27 27.215 Z M 42.59 34.995 C 42.16 35.318 41.646 35.509 41.11 35.545 L 40.35 35.545 L 41.82 28.095 L 43.82 28.095 C 44.01 28.101 44.191 28.175 44.33 28.305 C 44.603 28.63 44.733 29.052 44.69 29.475 C 44.67 31.095 43.68 34.025 42.58 34.965 Z" style="" transform="matrix(0.9999999999999999, 0, 0, 0.9999999999999999, -8.881784197001252e-16, 0)"/>
  <path class="a" d="M 29.21 30.465 C 28.964 30.232 28.639 30.1 28.3 30.095 L 27 30.095 L 27.28 28.665 C 27.371 28.264 27.061 27.885 26.65 27.895 L 15.15 27.895 C 14.735 27.878 14.417 28.26 14.51 28.665 L 16.58 39.435 C 16.671 39.846 17.029 40.142 17.45 40.155 L 24.24 40.155 C 24.663 40.143 25.025 39.847 25.12 39.435 L 25.54 37.315 L 26.22 37.315 C 26.804 37.286 27.365 37.08 27.83 36.725 C 28.979 35.374 29.641 33.677 29.71 31.905 C 29.752 31.376 29.57 30.854 29.21 30.465 Z M 15.95 32.215 L 15.26 28.615 L 26.55 28.615 L 25.83 32.215 L 15.95 32.215 Z M 27.3 36.055 C 26.987 36.291 26.611 36.43 26.22 36.455 L 25.71 36.455 L 26.79 30.935 L 28.31 30.935 C 28.425 30.941 28.535 30.987 28.62 31.065 C 28.808 31.295 28.898 31.589 28.87 31.885 C 28.797 33.405 28.247 34.864 27.3 36.055 Z" style="" transform="matrix(0.9999999999999999, 0, 0, 0.9999999999999999, -8.881784197001252e-16, 0)"/>
</svg>