<?xml version="1.0" encoding="utf-8"?>
<svg viewBox="0 0 60 60" width="60" height="60" xmlns="http://www.w3.org/2000/svg">
  <defs>
    <style>.a{fill:#fff;}</style>
  </defs>
  <path class="a" d="M 28.228 18.139 C 29.112 18.168 29.815 17.406 29.716 16.528 C 29.795 15.693 29.133 14.974 28.295 14.983 C 27.441 14.996 26.778 15.734 26.856 16.585 C 26.772 17.404 27.405 18.121 28.228 18.139 Z M 28.228 15.431 C 28.787 15.483 29.18 16.005 29.077 16.556 C 29.275 17.209 28.692 17.832 28.027 17.677 C 27.528 17.561 27.231 17.047 27.38 16.556 C 27.276 15.994 27.686 15.467 28.257 15.431 Z" style="" transform="matrix(0.9999999999999999, 0, 0, 0.9999999999999999, -8.881784197001252e-16, 0)"/>
  <path class="a" d="M 30.669 18.091 L 30.669 17.004 C 30.669 16.499 30.669 16.051 30.669 15.698 L 30.669 15.698 C 30.833 16.061 31.018 16.414 31.222 16.756 L 32.023 18.101 L 32.576 18.101 L 32.576 15.031 L 32.08 15.031 L 32.08 16.051 C 32.08 16.518 32.08 16.909 32.128 17.319 L 32.128 17.319 C 31.981 16.981 31.812 16.653 31.622 16.337 L 30.831 15.021 L 30.173 15.021 L 30.173 18.082 L 30.669 18.082 Z" style="" transform="matrix(0.9999999999999999, 0, 0, 0.9999999999999999, -8.881784197001252e-16, 0)"/>
  <path class="a" d="M 20.84 40.515 L 20.84 40.515 C 20.84 40.696 20.754 40.925 20.697 41.106 L 20.506 41.792 L 21.183 41.792 L 20.992 41.144 C 20.935 40.925 20.887 40.696 20.84 40.515 Z" style="" transform="matrix(0.9999999999999999, 0, 0, 0.9999999999999999, -8.881784197001252e-16, 0)"/>
  <path class="a" d="M 29.582 40.486 C 29.081 40.554 28.741 41.029 28.839 41.525 C 28.741 42.017 29.084 42.488 29.582 42.546 C 30.375 42.278 30.58 41.252 29.952 40.7 C 29.844 40.605 29.718 40.532 29.582 40.486 Z" style="" transform="matrix(0.9999999999999999, 0, 0, 0.9999999999999999, -8.881784197001252e-16, 0)"/>
  <path class="a" d="M 33.758 40.486 C 33.257 40.554 32.916 41.029 33.014 41.525 C 32.916 42.017 33.26 42.488 33.758 42.546 C 34.551 42.278 34.756 41.252 34.128 40.7 C 34.02 40.605 33.894 40.532 33.758 40.486 Z" style="" transform="matrix(0.9999999999999999, 0, 0, 0.9999999999999999, -8.881784197001252e-16, 0)"/>
  <path class="a" d="M 42.586 39.247 L 16.845 39.247 L 16.845 43.804 L 42.586 43.804 L 42.586 39.247 Z M 21.526 43.06 L 21.288 42.279 L 20.411 42.279 L 20.182 43.06 L 19.476 43.06 L 20.43 40 L 21.383 40 L 22.336 43.06 L 21.517 43.06 Z M 23.9 43.108 C 23.128 43.161 22.517 42.465 22.67 41.707 L 22.67 39.99 L 23.366 39.99 L 23.366 41.792 C 23.366 42.317 23.566 42.584 23.919 42.584 C 24.272 42.584 24.482 42.326 24.482 41.792 L 24.482 39.99 L 25.168 39.99 L 25.168 41.707 C 25.301 42.479 24.671 43.169 23.891 43.108 Z M 27.895 40.582 L 27.056 40.582 L 27.056 43.06 L 26.36 43.06 L 26.36 40.582 L 25.54 40.582 L 25.54 39.99 L 27.895 39.99 L 27.895 40.572 Z M 29.563 43.108 C 28.719 43.117 28.05 42.396 28.124 41.554 C 28.05 40.686 28.74 39.944 29.611 39.952 C 30.459 39.933 31.138 40.651 31.069 41.497 C 31.157 42.381 30.441 43.138 29.554 43.098 Z M 33.739 43.108 C 32.894 43.117 32.226 42.396 32.299 41.554 C 32.226 40.686 32.916 39.944 33.787 39.952 C 34.635 39.933 35.313 40.651 35.245 41.497 C 35.333 42.381 34.617 43.138 33.729 43.098 Z M 37.553 40.562 L 36.389 40.562 L 36.389 41.258 L 37.486 41.258 L 37.486 41.792 L 36.389 41.792 L 36.389 43.022 L 35.684 43.022 L 35.684 39.99 L 37.591 39.99 L 37.591 40.562 Z M 39.869 41.258 L 39.869 41.792 L 38.773 41.792 L 38.773 43.022 L 38.077 43.022 L 38.077 39.99 L 39.984 39.99 L 39.984 40.562 L 38.773 40.562 L 38.773 41.258 L 39.869 41.258 Z" style="" transform="matrix(0.9999999999999999, 0, 0, 0.9999999999999999, -8.881784197001252e-16, 0)"/>
  <path class="a" d="M 29.716 36.358 L 29.716 36.358 C 35.631 36.358 39.328 29.955 36.37 24.832 C 33.413 19.709 26.019 19.709 23.061 24.832 C 22.385 26.003 22.03 27.331 22.031 28.683 C 22.005 32.937 25.462 36.39 29.716 36.358 Z M 29.716 21.771 C 35.062 21.969 38.189 27.881 35.345 32.412 C 34.122 34.36 32.014 35.577 29.716 35.662 L 29.716 35.662 C 24.369 35.464 21.242 29.552 24.087 25.021 C 25.31 23.073 27.417 21.856 29.716 21.771 Z" style="" transform="matrix(0.9999999999999999, 0, 0, 0.9999999999999999, -8.881784197001252e-16, 0)"/>
  <path class="a" d="M 40.851 29.913 C 40.685 31.872 40.008 33.752 38.887 35.367 C 38.772 35.535 38.815 35.765 38.983 35.881 C 39.044 35.925 39.117 35.948 39.192 35.948 C 39.314 35.947 39.429 35.887 39.497 35.786 C 42.709 31.175 42.285 24.951 38.477 20.818 C 38.318 20.58 37.961 20.605 37.835 20.862 C 37.759 21.017 37.8 21.204 37.934 21.314 C 40.068 23.645 41.127 26.765 40.851 29.913 Z" style="" transform="matrix(0.9999999999999999, 0, 0, 0.9999999999999999, -8.881784197001252e-16, 0)"/>
  <path class="a" d="M 29.716 33.498 L 29.716 33.498 C 30.242 33.498 30.669 33.071 30.669 32.545 L 30.669 24.774 C 30.477 24.066 29.59 23.832 29.073 24.353 C 28.956 24.47 28.872 24.615 28.829 24.774 L 28.829 32.583 C 28.847 33.069 29.23 33.464 29.716 33.498 Z" style="" transform="matrix(0.9999999999999999, 0, 0, 0.9999999999999999, -8.881784197001252e-16, 0)"/>
  <circle class="a" cx="35.885" cy="19.201" r="0.839" style="" transform="matrix(1.000000014901161, 0, 0, 0.9999979883432085, 1.1139830516872262, 0.7969609617734115)"/>
  <circle class="a" cx="38.22" cy="37.149" r="0.858" style="" transform="matrix(0.9999999999999999, 0, 0, 0.9999999999999999, -8.881784197001252e-16, 0)"/>
</svg>