<svg xmlns="http://www.w3.org/2000/svg" viewBox="0 0 60 60"><defs><style>.a{fill:#fff;}</style></defs><title>Nespresso_FHTML_SVG_ICONES</title><path class="a" d="M42.27,22.58c-0.38-.25-0.87-0.51-0.87-0.51h0l-10.31-6h0A2.16,2.16,0,0,0,30,15.79a2.12,2.12,0,0,0-1.11.32h0L18.7,22h0s-0.31.17-.63,0.36l-0.1.06-0.08.05-0.06,0,0,0,0,0c-0.41.3-.41,0.55-0.41,1.38V36.47a1.41,1.41,0,0,0,.24.74,1.66,1.66,0,0,0,.56.55l11,6.31a1,1,0,0,0,.48.14A0.7,0.7,0,0,0,30,44.12a0.69,0.69,0,0,0,.31.09,1,1,0,0,0,.48-0.14l11-6.31a1.66,1.66,0,0,0,.56-0.55,1.42,1.42,0,0,0,.24-0.74V24.37C42.62,23.5,42.74,22.9,42.27,22.58ZM29.62,43.45l-0.07,0-11-6.31a1,1,0,0,1-.31-0.31,0.71,0.71,0,0,1-.12-0.34V24l11,6.31h0l0.1,0a1,1,0,0,1,.27.27,0.73,0.73,0,0,1,.12.34V43.45ZM30,29.77a0.94,0.94,0,0,1-.38-0.09l0,0-11-6.31-0.16-.07-0.15-.12h0A0.38,0.38,0,0,1,18.33,23l10.91-6.3h0a1.34,1.34,0,0,1,1.46,0h0L41.62,23a0.49,0.49,0,0,1,.11.09,0.57,0.57,0,0,1-.19.16l0,0-0.06,0-11,6.31A1,1,0,0,1,30,29.77Zm11.91,6.7a0.71,0.71,0,0,1-.12.34,1,1,0,0,1-.3.31l-11,6.31-0.06,0V30.93a0.73,0.73,0,0,1,.12-0.34,1,1,0,0,1,.3-0.3l0,0h0l11.06-6.33h0V36.47Z"/></svg>