<?xml version="1.0" encoding="UTF-8"?>
<svg width="80px" height="80px" viewBox="0 0 80 80" version="1.1" xmlns="http://www.w3.org/2000/svg" xmlns:xlink="http://www.w3.org/1999/xlink">
    <!-- Generator: Sketch 44.1 (41455) - http://www.bohemiancoding.com/sketch -->
    <title>machines_ol</title>
    <desc>Created with Sketch.</desc>
    <defs></defs>
    <g id="Page-1" stroke="none" stroke-width="1" fill="none" fill-rule="evenodd">
        <g id="machines_ol" fill="#000000">
            <g id="Group" transform="translate(-1.000000, 12.000000)">
                <polygon id="Fill-1" points="21.4784615 23.2446154 21.4784615 24.22 57.9153846 24.2015385 57.9153846 23.2292308"></polygon>
                <polygon id="Fill-2" points="21.4784615 14.7901538 21.4784615 15.7624615 57.9184615 15.744 57.9184615 14.7716923"></polygon>
                <polygon id="Fill-3" points="21.4784615 31.7101538 21.4784615 32.6763077 57.9184615 32.664 57.9184615 31.6886154"></polygon>
                <polygon id="Fill-4" points="21.4784615 40.1646154 21.4784615 41.1369231 57.9153846 41.1184615 57.9153846 40.1492308"></polygon>
                <path d="M64.3532308,52.5301538 L62.1132308,52.5332308 L61.8301538,52.5332308 L19.0855385,52.5486154 L19.064,7.06861538 L19.1532308,7.06861538 L19.1532308,1.28707692 L61.4609231,1.26553846 L61.4609231,1.28707692 L64.4886154,1.28707692 L64.4886154,5.89630769 L65.1224615,5.89630769 L67.6793846,5.89630769 C68.3224615,5.90246154 68.7686154,6.124 69.1870769,6.57015385 C69.5009231,6.90553846 69.7716923,7.37630769 69.9993846,7.94246154 L53.5932308,7.95169231 C52.0086154,7.45938462 49.9593846,6.85323077 49.3963077,6.85323077 C48.4393846,6.85323077 47.664,7.63169231 47.664,8.58553846 C47.6670769,9.54246154 48.4393846,10.3178462 49.3963077,10.3178462 C49.9593846,10.3147692 52.0055385,9.71476923 53.5932308,9.21938462 L70.3809231,9.21015385 C70.4393846,9.44092308 70.4978462,9.67476923 70.5409231,9.924 C70.8147692,11.3578462 70.8978462,12.9793846 70.8978462,14.4163077 C70.8978462,15.5424615 70.8424615,16.5578462 70.7932308,17.2870769 C70.7809231,17.524 70.7624615,17.7209231 70.744,17.8901538 L68.7009231,17.8901538 L67.7224615,14.9609231 L64.4886154,14.964 L64.5009231,22.2224615 L61.4701538,22.2255385 L61.4793846,40.9516923 L62.1132308,40.9516923 L75.4301538,40.9424615 L64.3532308,52.5301538 Z M3.68246154,52.5578462 L3.66092308,8.86246154 L2.26707692,8.86553846 L2.26707692,7.07476923 L17.9563077,7.06861538 L17.9747692,52.5516923 L3.68246154,52.5578462 Z M62.7378462,39.684 L62.7378462,23.4901538 L65.7686154,23.4901538 L65.7563077,16.2286154 L66.8116923,16.2255385 L67.7932308,19.1578462 L71.8916923,19.1578462 L71.9532308,18.5978462 C71.9532308,18.5824615 72.1655385,16.7455385 72.1655385,14.4163077 C72.1563077,12.7701538 72.0455385,10.8993846 71.6732308,9.20707692 L75.1932308,9.20707692 C75.5470769,9.20707692 75.8270769,8.92092308 75.8270769,8.57323077 C75.8270769,8.22553846 75.5470769,7.93938462 75.1932308,7.93938462 L71.3409231,7.94246154 C71.0516923,7.084 70.6670769,6.31169231 70.1163077,5.71169231 C69.5163077,5.05015385 68.6701538,4.61938462 67.6793846,4.62861538 L65.7563077,4.62861538 L65.7563077,0.0193846154 L62.7286154,0.0224615385 L62.7286154,0.000923076924 L17.8824615,0.0224615385 L17.8855385,5.79784615 L0.999384615,5.80707692 L1.00246154,10.1332308 L2.39630769,10.1301538 L2.41476923,53.8255385 L18.5409231,53.8193846 L18.784,53.8163077 L61.8301538,53.7978462 L62.1132308,53.7978462 L64.8916923,53.7947692 L78.3932308,39.6747692 L62.7378462,39.684 Z" id="Fill-5"></path>
            </g>
        </g>
    </g>
</svg>