<?xml version="1.0" encoding="UTF-8"?>
<svg width="80px" height="80px" viewBox="0 0 80 80" version="1.1" xmlns="http://www.w3.org/2000/svg" xmlns:xlink="http://www.w3.org/1999/xlink">
    <!-- Generator: Sketch 44.1 (41455) - http://www.bohemiancoding.com/sketch -->
    <title>personnal</title>
    <desc>Created with Sketch.</desc>
    <defs></defs>
    <g id="Page-1" stroke="none" stroke-width="1" fill="none" fill-rule="evenodd">
        <g id="personnal" fill="#000000">
            <g id="Group" transform="translate(0.000000, 20.000000)">
                <path d="M35.6177143,38.1706667 L0.840571429,38.1706667 L0.840571429,33.3649524 L12.9358095,26.936381 C13.0729524,26.8620952 13.1586667,26.7192381 13.1586667,26.5649524 L13.1586667,25.0411429 C13.1586667,24.9173333 13.1053333,24.7973333 13.0081905,24.7173333 C10.2710476,22.4430476 9.48057143,19.184 9.412,18.8887619 C9.23295238,16.7801905 8.892,11.1001905 9.39104762,9.704 C11.8748571,2.91161905 17.3967619,2.83352381 17.6310476,2.83352381 L17.6405714,2.83352381 L18.8024762,2.83352381 L18.8291429,2.83352381 C19.0634286,2.83352381 24.5834286,2.91161905 27.0653333,9.70209524 C27.5681905,11.1001905 27.2253333,16.7801905 27.0462857,18.8887619 C26.979619,19.184 26.1872381,22.4430476 23.4500952,24.7173333 C23.3548571,24.7973333 23.299619,24.9173333 23.299619,25.0411429 L23.299619,26.5649524 C23.299619,26.7192381 23.3815238,26.8620952 23.5224762,26.936381 L26.3510476,28.4373333 L31.1739048,31.0011429 L35.6177143,33.3649524 L35.6177143,38.1706667 Z M36.2348571,32.7401905 L31.5034286,30.2278095 L27.2539048,27.9668571 L24.139619,26.311619 L24.139619,25.2373333 C27.1015238,22.6792381 27.8424762,19.1859048 27.8729524,19.0354286 C27.8767619,19.0201905 27.8805714,19.0030476 27.8805714,18.9878095 C27.9053333,18.6735238 28.5262857,11.2792381 27.8577143,9.41447619 C25.172,2.07733333 19.084381,1.99161905 18.8291429,1.99161905 L18.8291429,1.99352381 L18.8177143,1.99161905 L17.6310476,1.99161905 C17.372,1.99161905 11.2881905,2.07733333 8.60057143,9.41638095 C7.932,11.2792381 8.55295238,18.6735238 8.57961905,18.9878095 C8.57961905,19.0030476 8.58342857,19.0201905 8.5872381,19.0354286 C8.61580952,19.1859048 9.35866667,22.6792381 12.3205714,25.2373333 L12.3205714,26.311619 L0.223428571,32.7401905 C0.0881904762,32.8125714 0.000571428572,32.9554286 0.000571428572,33.111619 L0.000571428572,38.591619 C0.000571428572,38.824 0.189142857,39.0125714 0.419619048,39.0125714 L36.0386667,39.0125714 C36.2691429,39.0125714 36.4577143,38.824 36.4577143,38.591619 L36.4577143,33.111619 C36.4577143,32.9554286 36.372,32.8125714 36.2348571,32.7401905 L36.2348571,32.7401905 Z" id="Fill-1"></path>
                <path d="M42.08,39.012381 L79.9219048,39.012381 L79.9219048,37.4980952 L42.08,37.4980952 L42.08,39.012381 Z M42.0761905,29.9228571 L79.9219048,29.9247619 L79.9219048,28.4104762 L42.0761905,28.4104762 L42.0761905,29.9228571 Z M42.0704762,20.8371429 L79.9219048,20.8371429 L79.9219048,19.3228571 L42.0704762,19.3228571 L42.0704762,20.8371429 Z M42.0647619,12.5057143 L79.9219048,12.5038095 L79.9219048,10.9933333 L42.0647619,10.9933333 L42.0647619,12.5057143 Z M42.0571429,3.41809524 L79.9219048,3.41809524 L79.9219048,1.90380952 L42.0571429,1.90380952 L42.0571429,3.41809524 Z" id="Fill-4"></path>
            </g>
        </g>
    </g>
</svg>