<?xml version="1.0" encoding="UTF-8"?>
<svg width="80px" height="80px" viewBox="0 0 80 80" version="1.1" xmlns="http://www.w3.org/2000/svg" xmlns:xlink="http://www.w3.org/1999/xlink">
    <!-- Generator: Sketch 44.1 (41455) - http://www.bohemiancoding.com/sketch -->
    <title>adress</title>
    <desc>Created with Sketch.</desc>
    <defs></defs>
    <g id="Page-1" stroke="none" stroke-width="1" fill="none" fill-rule="evenodd">
        <g id="adress" fill="#000000">
            <g id="Group" transform="translate(0.000000, 4.000000)">
                <polygon id="Fill-1" points="17.3927273 69.3963636 77.9636364 69.3963636 77.9636364 66.5018182 17.3927273 66.5018182"></polygon>
                <polygon id="Fill-2" points="17.3814545 50.6010909 17.3814545 53.492 77.9632727 53.4956364 77.9632727 50.6010909"></polygon>
                <polygon id="Fill-3" points="17.3709091 36.1418182 77.9636364 36.1418182 77.9636364 33.2509091 17.3709091 33.2509091"></polygon>
                <polygon id="Fill-4" points="17.3650909 15.9069091 17.3650909 18.7941818 77.9614545 18.7905455 77.9614545 15.9032727"></polygon>
                <polygon id="Fill-5" points="17.3527273 2.89090909 77.9636364 2.89090909 77.9636364 0 17.3527273 0"></polygon>
                <polygon id="Fill-6" points="0 50.6010909 0 53.492 2.89090909 53.4956364 2.89090909 50.6010909"></polygon>
                <polygon id="Fill-7" points="0 36.1418182 2.89090909 36.1418182 2.89090909 33.2509091 0 33.2509091"></polygon>
                <polygon id="Fill-8" points="0 69.3963636 2.89090909 69.3963636 2.89090909 66.5018182 0 66.5018182"></polygon>
                <polygon id="Fill-9" points="0 2.89090909 2.89090909 2.89090909 2.89090909 0 0 0"></polygon>
                <polygon id="Fill-10" points="0 15.9069091 0 18.7941818 2.89090909 18.7905455 2.89090909 15.9032727"></polygon>
            </g>
        </g>
    </g>
</svg>