<?xml version="1.0" encoding="UTF-8"?>
<svg width="80px" height="80px" viewBox="0 0 80 80" version="1.1" xmlns="http://www.w3.org/2000/svg" xmlns:xlink="http://www.w3.org/1999/xlink">
    <!-- Generator: Sketch 44.1 (41455) - http://www.bohemiancoding.com/sketch -->
    <title>alerts</title>
    <desc>Created with Sketch.</desc>
    <defs></defs>
    <g id="Page-1" stroke="none" stroke-width="1" fill="none" fill-rule="evenodd">
        <g id="alerts" fill="#000000">
            <g id="Group" transform="translate(2.000000, 0.000000)">
                <path d="M71.6328,57.422 L34.9488,39.686 L34.3728,39.406 L33.7248,39.406 L33.7248,22.21 L34.3808,22.21 L34.9688,21.922 L71.6328,3.81 L71.6328,57.422 Z M23.6328,39.406 L24.1088,42.618 L29.0608,75.922 L24.7568,75.922 L19.9928,41.818 L19.6528,39.406 L17.2168,39.406 L12.6648,39.406 L12.6648,22.21 L31.4448,22.21 L31.4448,39.406 L26.8808,39.406 L23.6328,39.406 Z M2.7968,30.81 C2.7968,26.47 6.0448,22.874 10.3808,22.314 L10.3808,39.314 C6.0448,38.75 2.7968,35.158 2.7968,30.81 L2.7968,30.81 Z M73.8968,0.174 C73.7128,0.058 73.5008,0.002 73.2888,0.002 C73.1248,0.002 72.9528,0.034 72.7968,0.11 L33.7248,19.414 L31.4448,19.414 L12.6648,19.414 L10.3808,19.414 L10.3808,19.474 C4.5608,20.042 0.0008,24.91 0.0008,30.81 C0.0008,36.714 4.5608,41.582 10.3808,42.15 L10.3808,42.206 L12.6648,42.206 L17.2168,42.206 L22.1848,77.738 C22.2568,78.302 22.7408,78.718 23.3128,78.718 L30.9928,78.718 L31.0008,78.718 L31.0248,78.718 C31.6528,78.718 32.1648,78.206 32.1648,77.578 C32.1648,77.43 32.1328,77.286 32.0848,77.158 L26.8808,42.206 L31.4448,42.206 L33.7248,42.206 L72.8048,61.102 C72.9608,61.17 73.1248,61.206 73.2888,61.206 C73.5048,61.206 73.7168,61.146 73.9048,61.026 C74.2328,60.822 74.4288,60.454 74.4288,60.066 L74.4288,1.142 C74.4288,0.75 74.2288,0.382 73.8968,0.174 L73.8968,0.174 Z" id="Fill-1"></path>
            </g>
        </g>
    </g>
</svg>