<?xml version="1.0" encoding="UTF-8"?>
<svg width="80px" height="80px" viewBox="0 0 80 80" version="1.1" xmlns="http://www.w3.org/2000/svg" xmlns:xlink="http://www.w3.org/1999/xlink">
    <!-- Generator: Sketch 44.1 (41455) - http://www.bohemiancoding.com/sketch -->
    <title>contact pref</title>
    <desc>Created with Sketch.</desc>
    <defs></defs>
    <g id="Page-1" stroke="none" stroke-width="1" fill="none" fill-rule="evenodd">
        <g id="contact-pref">
            <g id="Page-1" transform="translate(4.000000, 9.000000)">
                <path d="M48.2218953,55.7745706 L48.3726878,55.866193 C52.071918,58.1125219 59.066126,61.3066688 71.4888661,63.8878934 C70.2055252,61.3730161 66.2047098,52.9153193 65.9897502,44.7893589 L65.9865419,44.6471862 L66.0763758,44.533448 C73.2855434,35.680827 73.7507544,24.468139 67.2955496,15.2743035 C57.7154097,1.61624478 36.0044897,-3.25238082 18.9007637,4.42178633 C10.1355452,8.35523141 3.85038306,15.1036962 1.65587009,22.9358331 C-0.246682814,29.7380076 1.05590822,36.8371651 5.32943347,42.9253166 C13.7802334,54.9657658 31.7470062,60.3809665 48.0518526,55.8219615 L48.2218953,55.7745706 Z M73,65 L72.1497866,64.8293927 C59.2682522,62.2323712 51.9788758,58.9529206 48.1031862,56.6307662 C31.5160049,61.1992494 13.2797304,55.641876 4.67172125,43.3771099 C0.260236848,37.0899166 -1.08406276,29.7569639 0.882657192,22.7273131 C3.14133721,14.6676999 9.58691696,7.73283086 18.5703034,3.70144458 C35.998073,-4.12121408 58.1549539,0.861149696 67.9532618,14.8225102 C74.5945511,24.2785754 74.1453818,35.7945652 66.7950467,44.9125752 C67.0998401,54.3117713 72.5283722,64.1532825 72.5829142,64.2543831 L73,65 Z" id="Fill-1" fill="#000000"></path>
                <path d="M48.2218953,55.7745706 L48.3726878,55.866193 C52.071918,58.1125219 59.066126,61.3066688 71.4888661,63.8878934 C70.2055252,61.3730161 66.2047098,52.9153193 65.9897502,44.7893589 L65.9865419,44.6471862 L66.0763758,44.533448 C73.2855434,35.680827 73.7507544,24.468139 67.2955496,15.2743035 C57.7154097,1.61624478 36.0044897,-3.25238082 18.9007637,4.42178633 C10.1355452,8.35523141 3.85038306,15.1036962 1.65587009,22.9358331 C-0.246682814,29.7380076 1.05590822,36.8371651 5.32943347,42.9253166 C13.7802334,54.9657658 31.7470062,60.3809665 48.0518526,55.8219615 L48.2218953,55.7745706 Z M73,65 L72.1497866,64.8293927 C59.2682522,62.2323712 51.9788758,58.9529206 48.1031862,56.6307662 C31.5160049,61.1992494 13.2797304,55.641876 4.67172125,43.3771099 C0.260236848,37.0899166 -1.08406276,29.7569639 0.882657192,22.7273131 C3.14133721,14.6676999 9.58691696,7.73283086 18.5703034,3.70144458 C35.998073,-4.12121408 58.1549539,0.861149696 67.9532618,14.8225102 C74.5945511,24.2785754 74.1453818,35.7945652 66.7950467,44.9125752 C67.0998401,54.3117713 72.5283722,64.1532825 72.5829142,64.2543831 L73,65 Z" id="Stroke-3" stroke="#000000" stroke-width="0.75"></path>
            </g>
        </g>
    </g>
</svg>