<?xml version="1.0" encoding="UTF-8"?>
<svg width="80px" height="80px" viewBox="0 0 80 80" version="1.1" xmlns="http://www.w3.org/2000/svg" xmlns:xlink="http://www.w3.org/1999/xlink">
    <!-- Generator: Sketch 44.1 (41455) - http://www.bohemiancoding.com/sketch -->
    <title>order</title>
    <desc>Created with Sketch.</desc>
    <defs></defs>
    <g id="Page-1" stroke="none" stroke-width="1" fill="none" fill-rule="evenodd">
        <g id="order" fill="#000000">
            <g id="Group" transform="translate(2.000000, 0.000000)">
                <path d="M63.735619,63.560381 C63.6822857,63.5375238 63.640381,63.5184762 63.5870476,63.5070476 L65.4994286,23.1375238 L71.0270476,67.175619 L63.735619,63.560381 Z M63.0575238,74.7108571 L63.5032381,65.2365714 L70.528,68.7184762 L63.0575238,74.7108571 Z M61.415619,75.6441905 L1.64038095,75.6441905 L4.47085714,15.8689524 L64.2422857,15.8689524 L61.415619,75.6441905 Z M26.7718095,14.2041905 L26.7718095,9.27466667 C26.7299048,6.90895238 27.568,4.61180952 29.0194286,3.14133333 C30.0060952,2.13180952 31.1832381,1.59847619 32.4175238,1.59847619 L41.5337143,1.59847619 C44.7337143,1.59847619 47.4994286,5.12609524 47.560381,9.28990476 L47.560381,14.2041905 C47.560381,14.2308571 47.568,14.2499048 47.568,14.2727619 L26.7641905,14.2727619 C26.7641905,14.2499048 26.7718095,14.2308571 26.7718095,14.2041905 L26.7718095,14.2041905 Z M72.7984762,68.4784762 L72.7984762,68.4594286 L66.1165714,15.1946667 C66.0822857,14.935619 65.9299048,14.7299048 65.728,14.6041905 C65.7089524,14.5775238 65.6860952,14.5470476 65.6632381,14.520381 C65.5108571,14.360381 65.2975238,14.2727619 65.0841905,14.2727619 L49.160381,14.2727619 L49.160381,14.2041905 L49.160381,9.27847619 C49.1222857,6.88990476 48.3413333,4.608 46.9432381,2.848 C45.4918095,1.01180952 43.5641905,-0.00152380952 41.5337143,-0.00152380952 L32.4175238,-0.00152380952 C30.7451429,-0.00152380952 29.168,0.699428571 27.8727619,2.01752381 C26.1318095,3.7927619 25.1184762,6.5127619 25.1718095,9.28990476 L25.1718095,14.2041905 C25.1718095,14.2308571 25.1794286,14.2499048 25.1794286,14.2727619 L3.70514286,14.2727619 C3.27466667,14.2727619 2.92419048,14.608 2.90514286,15.0346667 L0.00228571429,76.4060952 C-0.00533333333,76.6270476 0.0746666667,76.8365714 0.223238095,76.9965714 C0.371809524,77.1565714 0.581333333,77.248 0.79847619,77.248 L62.1737143,77.248 C62.2270476,77.248 62.2689524,77.240381 62.3222857,77.2327619 C62.3375238,77.2289524 62.3527619,77.2213333 62.368,77.2175238 C62.3946667,77.2099048 62.4251429,77.2022857 62.455619,77.1908571 C62.4784762,77.1832381 62.4937143,77.175619 62.5089524,77.168 C62.5394286,77.1565714 62.5584762,77.1413333 62.5813333,77.1337143 C62.6041905,77.1184762 62.6194286,77.1070476 62.6384762,77.095619 C62.6499048,77.0841905 62.6651429,77.080381 62.680381,77.0689524 L72.5089524,69.1832381 C72.5165714,69.1794286 72.520381,69.175619 72.5241905,69.1718095 C72.5546667,69.1413333 72.5889524,69.1108571 72.6118095,69.080381 C72.6118095,69.0727619 72.6232381,69.0689524 72.6270476,69.0651429 C72.6537143,69.0308571 72.680381,68.9927619 72.7032381,68.9508571 C72.7070476,68.9394286 72.7146667,68.928 72.7184762,68.9165714 C72.7375238,68.8822857 72.7489524,68.8518095 72.7641905,68.8137143 C72.768,68.8060952 72.768,68.7984762 72.775619,68.7908571 C72.7832381,68.7451429 72.7984762,68.7032381 72.7984762,68.6575238 L72.7984762,68.6232381 C72.8060952,68.5851429 72.8060952,68.5546667 72.8060952,68.5165714 C72.7984762,68.5051429 72.7984762,68.4899048 72.7984762,68.4784762 L72.7984762,68.4784762 Z" id="Fill-1"></path>
                <path d="M46.4140952,61.2872381 C44.2921905,60.4948571 41.263619,58.1405714 39.5226667,55.9805714 C37.256,53.3939048 31.8464762,46.0948571 31.8464762,46.0948571 C29.0540952,42.4910476 25.336,36.5024762 21.6445714,33.4891429 L21.6445714,57.424381 L24.936,57.424381 L24.936,45.3481905 C27.256,48.3081905 29.968381,52.0872381 31.9988571,54.4834286 C32.8940952,55.5539048 35.2026667,58.0605714 35.8579048,58.6167619 C40.0979048,62.7577143 47.8731429,64.6091429 54.3607619,62.3386667 L54.3607619,62.1139048 C52.1245714,62.5939048 49.248381,62.4148571 46.4140952,61.2872381" id="Fill-4"></path>
                <path d="M26.3619048,35.5321905 C28.6247619,38.1226667 34.0419048,45.4255238 34.0419048,45.4255238 C36.8266667,49.0255238 40.5447619,55.0102857 44.232381,58.023619 L44.232381,34.0921905 L40.9409524,34.0921905 L40.9409524,46.1721905 C38.632381,43.2121905 35.9161905,39.4255238 33.8780952,37.0369524 C32.9904762,35.9626667 30.6780952,33.4521905 30.0304762,32.903619 C25.7904762,28.7626667 18.0152381,26.903619 11.5238095,29.1779048 L11.5238095,29.4064762 C13.7485714,28.9264762 16.632381,29.1055238 19.4628571,30.2331429 C21.5809524,31.0217143 24.6133333,33.3798095 26.3619048,35.5321905" id="Fill-6"></path>
            </g>
        </g>
    </g>
</svg>